<svg width="271" height="54" viewBox="0 0 271 54" fill="none" xmlns="http://www.w3.org/2000/svg">
<g clip-path="url(#clip0)">
<path d="M68.5229 33.2697C65.0514 30.1317 64.188 26.0146 64.188 22.5897C64.188 20.1713 65.0107 15.9494 68.1975 12.7386C70.3446 10.5752 73.6037 8.87646 79.1185 8.87646C80.5514 8.87646 82.5584 8.98577 84.3123 9.30913C85.6729 9.55962 86.821 9.77823 87.9647 9.8511C88.3579 9.88753 88.4303 10.0333 88.4303 10.2473C88.4303 10.5388 88.3218 10.9669 88.2494 12.2695C88.1771 13.4582 88.1771 15.4439 88.141 15.9858C88.1048 16.5278 88.0325 16.7419 87.82 16.7419C87.5714 16.7419 87.5352 16.4914 87.5352 15.9858C87.5352 14.5785 86.9612 13.0984 86.03 12.3059C84.7779 11.222 82.0205 10.2473 78.8699 10.2473C74.1055 10.2473 71.886 11.6546 70.6339 12.8843C68.0212 15.4074 67.411 18.6228 67.411 22.3027C67.411 29.1935 72.6771 35.5104 80.339 35.5104C83.024 35.5104 85.1395 35.1871 86.5724 33.7069C87.3228 32.9144 87.7884 31.3249 87.8969 30.6782C87.9692 30.282 88.0415 30.1363 88.254 30.1363C88.4348 30.1363 88.5026 30.3867 88.5026 30.6782C88.5026 30.9333 88.0732 34.0712 87.7161 35.2964C87.4991 35.9841 87.4313 36.0524 86.7849 36.3439C85.3519 36.9223 82.6307 37.1728 80.339 37.1728C74.9689 37.1637 71.3526 35.8292 68.5229 33.2697Z" fill="white"/>
<path d="M103.899 13.0254C110.991 13.0254 116.361 17.393 116.361 24.5343C116.361 31.3886 111.312 37.0542 103.718 37.0542C95.0886 37.0542 91.4001 30.5233 91.4001 25.0034C91.4001 20.0619 95.1971 13.0254 103.899 13.0254ZM104.617 35.7927C107.447 35.7927 113.138 34.2761 113.138 25.3996C113.138 18.0398 108.699 14.1776 103.718 14.1776C98.4517 14.1776 94.6592 17.4978 94.6592 24.1699C94.6592 31.3203 98.9218 35.7927 104.617 35.7927Z" fill="white"/>
<path d="M122.052 22.3347C122.052 17.5708 122.052 16.7055 121.98 15.7309C121.907 14.6834 121.731 14.1778 120.691 14.0367C120.443 14.0002 119.905 13.9638 119.616 13.9638C119.507 13.9638 119.367 13.818 119.367 13.7087C119.367 13.5311 119.512 13.4583 119.869 13.4583C121.302 13.4583 123.413 13.5311 123.593 13.5311C123.914 13.5311 126.563 13.4583 127.531 13.4583C129.538 13.4583 131.757 13.6404 133.402 14.7927C134.189 15.3711 135.586 16.8467 135.586 18.9781C135.586 21.2508 134.655 23.4505 131.716 25.9782C134.293 29.2255 136.481 32.0036 138.307 33.9165C139.989 35.6471 141.028 35.9386 141.815 36.0434C142.425 36.1527 142.746 36.1527 142.927 36.1527C143.108 36.1527 143.212 36.2984 143.212 36.4032C143.212 36.5853 143.031 36.6582 142.461 36.6582H140.49C138.7 36.6582 137.914 36.476 137.123 36.0434C135.762 35.3238 134.614 33.8436 132.824 31.5345C131.499 29.8768 130.103 27.891 129.42 27.0622C129.275 26.9164 129.203 26.88 128.991 26.88L124.981 26.8071C124.837 26.8071 124.764 26.88 124.764 27.0622V27.7817C124.764 30.7421 124.764 33.1195 124.909 34.3856C125.017 35.2873 125.194 35.8658 126.161 36.0069C126.59 36.0798 127.273 36.1527 127.558 36.1527C127.775 36.1527 127.806 36.2984 127.806 36.4032C127.806 36.5489 127.662 36.6582 127.305 36.6582C125.587 36.6582 123.58 36.5489 123.435 36.5489C123.399 36.5489 121.288 36.6582 120.321 36.6582C120 36.6582 119.819 36.5853 119.819 36.4032C119.819 36.2939 119.891 36.1527 120.068 36.1527C120.352 36.1527 120.75 36.0798 121.035 36.0069C121.645 35.8612 121.718 35.2873 121.858 34.3856C122.039 33.124 122.039 30.7057 122.039 27.7453V22.3347H122.052ZM124.773 24.9307C124.773 25.1129 124.846 25.2176 124.99 25.3269C125.456 25.5774 127.065 25.796 128.462 25.796C129.212 25.796 130.076 25.7596 130.826 25.2541C131.902 24.5345 132.724 22.9086 132.724 20.5631C132.724 16.7374 130.65 14.5376 127.282 14.5376C126.351 14.5376 125.347 14.6469 125.026 14.7198C124.882 14.7927 124.778 14.8974 124.778 15.0796V24.9307H124.773Z" fill="white"/>
<path d="M169.709 26.1968C169.709 29.6627 169.709 32.5092 169.89 34.0258C169.999 35.0733 170.211 35.8657 171.287 36.0115C171.789 36.0843 172.575 36.1572 172.901 36.1572C173.118 36.1572 173.186 36.2665 173.186 36.3713C173.186 36.5534 173.005 36.6628 172.611 36.6628C170.641 36.6628 168.385 36.5534 168.209 36.5534C168.028 36.5534 165.772 36.6628 164.701 36.6628C164.308 36.6628 164.127 36.5899 164.127 36.3713C164.127 36.262 164.199 36.1572 164.412 36.1572C164.733 36.1572 165.162 36.0843 165.487 36.0115C166.206 35.8657 166.382 35.0733 166.527 34.0258C166.708 32.5092 166.708 29.6581 166.708 26.1968V22.4076C166.708 22.2618 166.599 22.189 166.491 22.189H151.307C151.199 22.189 151.09 22.2254 151.09 22.4076V26.1968C151.09 29.6627 151.09 32.5092 151.271 34.0258C151.38 35.0733 151.592 35.8657 152.668 36.0115C153.17 36.0843 153.956 36.1572 154.277 36.1572C154.494 36.1572 154.562 36.2665 154.562 36.3713C154.562 36.5534 154.381 36.6628 153.988 36.6628C152.017 36.6628 149.761 36.5534 149.585 36.5534C149.409 36.5534 147.149 36.6628 146.077 36.6628C145.684 36.6628 145.503 36.5899 145.503 36.3713C145.503 36.262 145.576 36.1572 145.788 36.1572C146.109 36.1572 146.538 36.0843 146.864 36.0115C147.578 35.8657 147.759 35.0733 147.904 34.0258C148.084 32.5092 148.084 29.6581 148.084 26.1968V19.8435C148.084 14.2143 148.084 13.2032 148.012 12.0509C147.94 10.8258 147.655 10.2474 146.471 9.99237C146.186 9.9195 145.576 9.88306 145.255 9.88306C145.11 9.88306 144.97 9.81019 144.97 9.669C144.97 9.4504 145.151 9.38208 145.544 9.38208C147.153 9.38208 149.413 9.49138 149.59 9.49138C149.766 9.49138 152.026 9.38208 153.097 9.38208C153.491 9.38208 153.671 9.45495 153.671 9.669C153.671 9.81474 153.527 9.88306 153.387 9.88306C153.138 9.88306 152.921 9.9195 152.492 9.99237C151.524 10.1745 151.24 10.7848 151.167 12.0509C151.095 13.2077 151.095 14.2143 151.095 19.8435V20.5995C151.095 20.7817 151.203 20.8181 151.312 20.8181H166.495C166.604 20.8181 166.712 20.7817 166.712 20.5995V19.8435C166.712 14.2143 166.712 13.2032 166.64 12.0509C166.568 10.8258 166.283 10.2474 165.099 9.99237C164.814 9.9195 164.204 9.88306 163.883 9.88306C163.738 9.88306 163.598 9.81019 163.598 9.669C163.598 9.4504 163.779 9.38208 164.172 9.38208C165.786 9.38208 168.041 9.49138 168.218 9.49138C168.399 9.49138 170.654 9.38208 171.725 9.38208C172.119 9.38208 172.3 9.45495 172.3 9.669C172.3 9.81474 172.155 9.88306 172.015 9.88306C171.766 9.88306 171.549 9.9195 171.12 9.99237C170.152 10.1745 169.868 10.7848 169.795 12.0509C169.723 13.2077 169.723 14.2143 169.723 19.8435V26.1968H169.709Z" fill="white"/>
<path d="M187.036 13.0254C194.128 13.0254 199.498 17.393 199.498 24.5343C199.498 31.3886 194.449 37.0542 186.855 37.0542C178.226 37.0542 174.537 30.5233 174.537 25.0034C174.537 20.0619 178.334 13.0254 187.036 13.0254ZM187.754 35.7927C190.584 35.7927 196.28 34.2761 196.28 25.3996C196.28 18.0398 191.841 14.1776 186.859 14.1776C181.593 14.1776 177.801 17.4978 177.801 24.1699C177.796 31.3203 182.059 35.7927 187.754 35.7927Z" fill="white"/>
<path d="M228.41 32.6913C228.518 33.7753 228.731 35.4331 230.024 35.8657C230.919 36.1526 231.741 36.1526 232.067 36.1526C232.211 36.1526 232.315 36.2255 232.315 36.3667C232.315 36.5489 232.031 36.6582 231.669 36.6582C230.955 36.6582 227.442 36.5853 226.299 36.476C225.548 36.4031 225.404 36.2984 225.404 36.1526C225.404 36.0433 225.476 35.9386 225.621 35.9022C225.802 35.8657 225.838 35.3966 225.765 34.8182L224.26 19.306H224.188L216.594 34.964C215.947 36.2984 215.771 36.5899 215.482 36.5899C215.197 36.5899 215.016 36.3029 214.406 35.1826C213.583 33.666 211.504 29.7355 210.717 28.0732C209.786 26.1239 207.246 20.9638 206.708 19.7023H206.563L205.347 33.5567C205.311 34.0258 205.311 34.6042 205.311 35.1097C205.311 35.5788 205.596 35.8657 206.062 35.975C206.599 36.1208 207.065 36.1526 207.277 36.1526C207.386 36.1526 207.526 36.2619 207.526 36.3667C207.526 36.5853 207.309 36.6582 206.952 36.6582C205.772 36.6582 204.267 36.5489 204.014 36.5489C203.729 36.5489 202.224 36.6582 201.365 36.6582C201.044 36.6582 200.827 36.5853 200.827 36.3667C200.827 36.2574 200.972 36.1526 201.148 36.1526C201.397 36.1526 201.614 36.1162 202.079 36.0433C203.119 35.8657 203.155 34.7453 203.295 33.5885L205.587 13.563C205.623 13.2396 205.768 13.021 205.944 13.021C206.161 13.021 206.41 13.1303 206.59 13.4901L216.115 32.541L225.282 13.5265C225.426 13.2396 225.567 13.021 225.784 13.021C226 13.021 226.177 13.2715 226.249 13.8499L228.41 32.6913Z" fill="white"/>
<path d="M236.998 22.3346C236.998 17.5708 236.998 16.7054 236.926 15.7308C236.854 14.6833 236.677 14.1778 235.638 14.0366C235.389 14.0001 234.851 13.9637 234.562 13.9637C234.453 13.9637 234.313 13.818 234.313 13.7087C234.313 13.531 234.458 13.4582 234.815 13.4582C236.248 13.4582 238.287 13.531 238.467 13.531C238.68 13.531 245.27 13.5675 245.989 13.531C246.599 13.4946 247.169 13.3853 247.422 13.3489C247.567 13.3124 247.707 13.2031 247.851 13.2031C247.96 13.2031 247.996 13.3489 247.996 13.4901C247.996 13.7041 247.815 14.0685 247.743 14.9338C247.707 15.2207 247.635 16.5916 247.567 16.9559C247.531 17.1017 247.422 17.2793 247.282 17.2793C247.101 17.2793 247.029 17.1335 247.029 16.8831C247.029 16.669 246.993 16.1635 246.853 15.7991C246.636 15.2936 246.315 15.0795 244.597 14.8609C244.059 14.788 240.407 14.7516 240.049 14.7516C239.905 14.7516 239.873 14.8609 239.873 15.075V23.4095C239.873 23.6281 239.873 23.7328 240.049 23.7328C240.443 23.7328 244.597 23.7328 245.316 23.66C246.066 23.5871 246.532 23.5507 246.857 23.2273C247.069 23.0087 247.214 22.8311 247.323 22.8311C247.431 22.8311 247.503 22.9039 247.503 23.0816C247.503 23.2592 247.323 23.7647 247.255 24.7758C247.182 25.3906 247.11 26.5429 247.11 26.7615C247.11 27.0165 247.038 27.3399 246.825 27.3399C246.681 27.3399 246.608 27.2306 246.608 27.053C246.608 26.7615 246.608 26.4381 246.464 26.0419C246.355 25.6092 246.07 25.2494 244.85 25.1037C243.991 24.9944 240.624 24.958 240.086 24.958C239.909 24.958 239.873 25.0673 239.873 25.1766V27.7361C239.873 28.7836 239.837 32.3543 239.873 32.9691C239.946 35.0277 240.52 35.4239 243.634 35.4239C244.457 35.4239 245.962 35.4239 246.785 35.1005C247.607 34.7407 248.037 34.1988 248.218 32.9691C248.29 32.6093 248.362 32.5 248.539 32.5C248.719 32.5 248.756 32.755 248.756 32.9691C248.756 33.1877 248.502 35.2782 248.326 35.9294C248.109 36.7219 247.788 36.7219 246.572 36.7219C244.208 36.7219 242.382 36.649 241.094 36.6126C239.769 36.5397 238.947 36.5397 238.481 36.5397C238.409 36.5397 237.798 36.5397 237.12 36.5762C236.51 36.6126 235.796 36.649 235.294 36.649C234.973 36.649 234.792 36.5762 234.792 36.394C234.792 36.2847 234.865 36.1435 235.041 36.1435C235.326 36.1435 235.724 36.0342 236.008 35.9978C236.619 35.8884 236.691 35.2782 236.831 34.3764C237.012 33.1148 237.012 30.6965 237.012 27.7361V22.3346H236.998Z" fill="white"/>
<path d="M89.9852 44.2046H64.5225V44.5872H89.9852V44.2046Z" fill="white"/>
<path d="M94.1484 45.2841C94.0987 45.2841 94.0761 45.3068 94.0535 45.3661L93.4975 46.8508C93.3935 47.1104 93.3438 47.3609 93.3438 47.4838C93.3438 47.6706 93.4387 47.8072 93.7551 47.8072H93.9088C94.0309 47.8072 94.0625 47.83 94.0625 47.8892C94.0625 47.9712 93.9992 47.9939 93.8862 47.9939C93.5562 47.9939 93.1133 47.962 92.7923 47.962C92.6793 47.962 92.1097 47.9939 91.5764 47.9939C91.4407 47.9939 91.382 47.9712 91.382 47.8892C91.382 47.8254 91.4227 47.8072 91.504 47.8072C91.599 47.8072 91.7391 47.7981 91.825 47.789C92.2996 47.7252 92.494 47.3745 92.7019 46.8553L95.292 40.3244C95.4141 40.0238 95.4774 39.9099 95.5813 39.9099C95.6762 39.9099 95.735 40.0056 95.839 40.2424C96.0876 40.8162 97.7375 45.0564 98.3975 46.6367C98.7907 47.5704 99.0891 47.7161 99.306 47.7708C99.4597 47.8026 99.6179 47.8118 99.74 47.8118C99.8213 47.8118 99.8756 47.8209 99.8756 47.8937C99.8756 47.9757 99.7807 47.9985 99.401 47.9985C99.0303 47.9985 98.2754 47.9985 97.4527 47.9757C97.2674 47.9666 97.1453 47.9666 97.1453 47.8937C97.1453 47.83 97.186 47.8117 97.29 47.7981C97.3623 47.7753 97.4346 47.6842 97.3849 47.5567L96.5577 45.3524C96.5351 45.3023 96.508 45.2795 96.4537 45.2795H94.1484V45.2841ZM96.2548 44.7649C96.3046 44.7649 96.3181 44.733 96.3046 44.7011L95.3779 42.137C95.3689 42.096 95.3553 42.0414 95.3282 42.0414C95.2965 42.0414 95.2785 42.0915 95.2649 42.137L94.3156 44.6966C94.3066 44.7375 94.3156 44.7694 94.3563 44.7694H96.2548V44.7649Z" fill="white"/>
<path d="M108.726 43.4441C108.758 43.4441 108.79 43.4213 108.79 43.3712V43.1526C108.79 41.5722 108.79 41.2808 108.767 40.9483C108.744 40.593 108.663 40.4291 108.324 40.3562C108.243 40.3334 108.066 40.3243 107.922 40.3243C107.809 40.3243 107.745 40.3061 107.745 40.2287C107.745 40.1513 107.818 40.1331 107.962 40.1331C108.518 40.1331 109.169 40.1649 109.45 40.1649C109.698 40.1649 110.349 40.1331 110.751 40.1331C110.896 40.1331 110.968 40.1513 110.968 40.2287C110.968 40.3061 110.905 40.3243 110.783 40.3243C110.702 40.3243 110.607 40.3334 110.485 40.3562C110.204 40.4063 110.123 40.5839 110.105 40.9483C110.082 41.2808 110.082 41.5722 110.082 43.1526V44.9835C110.082 45.9399 110.082 46.7597 110.132 47.2105C110.164 47.502 110.227 47.7297 110.534 47.7707C110.679 47.7935 110.905 47.8117 111.059 47.8117C111.172 47.8117 111.226 47.8436 111.226 47.8937C111.226 47.9666 111.145 47.9985 111.018 47.9985C110.349 47.9985 109.698 47.9666 109.409 47.9666C109.174 47.9666 108.523 47.9985 108.121 47.9985C107.976 47.9985 107.904 47.9666 107.904 47.8937C107.904 47.8436 107.944 47.8117 108.071 47.8117C108.225 47.8117 108.351 47.7935 108.442 47.7707C108.649 47.7297 108.699 47.502 108.74 47.1969C108.79 46.7597 108.79 45.9399 108.79 44.9835V44.068C108.79 44.027 108.758 44.0043 108.726 44.0043H104.785C104.753 44.0043 104.721 44.0134 104.721 44.068V44.9835C104.721 45.9399 104.721 46.7597 104.771 47.2105C104.803 47.502 104.866 47.7297 105.173 47.7707C105.318 47.7935 105.544 47.8117 105.698 47.8117C105.811 47.8117 105.865 47.8436 105.865 47.8937C105.865 47.9666 105.784 47.9985 105.657 47.9985C104.988 47.9985 104.337 47.9666 104.048 47.9666C103.813 47.9666 103.162 47.9985 102.746 47.9985C102.61 47.9985 102.538 47.9666 102.538 47.8937C102.538 47.8436 102.579 47.8117 102.705 47.8117C102.859 47.8117 102.986 47.7935 103.076 47.7707C103.284 47.7297 103.334 47.502 103.374 47.1969C103.424 46.7597 103.424 45.9399 103.424 44.9835V43.1526C103.424 41.5722 103.424 41.2808 103.401 40.9483C103.379 40.593 103.297 40.4291 102.958 40.3562C102.877 40.3334 102.701 40.3243 102.556 40.3243C102.443 40.3243 102.38 40.3061 102.38 40.2287C102.38 40.1513 102.452 40.1331 102.597 40.1331C103.153 40.1331 103.804 40.1649 104.084 40.1649C104.333 40.1649 104.983 40.1331 105.386 40.1331C105.53 40.1331 105.603 40.1513 105.603 40.2287C105.603 40.3061 105.539 40.3243 105.417 40.3243C105.336 40.3243 105.241 40.3334 105.119 40.3562C104.839 40.4063 104.757 40.5839 104.739 40.9483C104.717 41.2808 104.717 41.5722 104.717 43.1526V43.3712C104.717 43.4213 104.748 43.4441 104.78 43.4441H108.726Z" fill="white"/>
<path d="M111.85 44.651C111.85 43.1435 112.903 41.1897 115.656 41.1897C117.948 41.1897 119.372 42.4695 119.372 44.4962C119.372 46.5229 117.907 48.1123 115.565 48.1123C112.921 48.1123 111.85 46.2223 111.85 44.651ZM118.02 44.8195C118.02 42.8657 116.854 41.6588 115.389 41.6588C114.377 41.6588 113.192 42.2008 113.192 44.3823C113.192 46.1995 114.223 47.6341 115.936 47.6341C116.573 47.6341 118.02 47.3335 118.02 44.8195Z" fill="white"/>
<path d="M121.347 41.3447C121.37 41.1989 121.451 41.1169 121.523 41.1169C121.618 41.1169 121.677 41.1579 121.803 41.3993L124.24 46.3271L126.676 41.3356C126.749 41.1898 126.83 41.1169 126.911 41.1169C126.984 41.1169 127.088 41.2126 127.119 41.3993L127.947 46.8554C128.028 47.4065 128.114 47.6434 128.39 47.7299C128.647 47.8028 128.792 47.8119 128.905 47.8119C128.986 47.8119 129.049 47.8437 129.049 47.8938C129.049 47.9667 128.946 47.9986 128.814 47.9986C128.588 47.9986 127.296 47.9576 126.934 47.9348C126.717 47.9257 126.667 47.8847 126.667 47.8301C126.667 47.7891 126.708 47.7572 126.771 47.7344C126.821 47.7117 126.844 47.6115 126.812 47.361L126.306 43.5353H126.274L124.326 47.484C124.118 47.8984 124.068 47.9849 123.964 47.9849C123.851 47.9849 123.747 47.8073 123.603 47.5386C123.386 47.1333 122.662 45.7806 122.558 45.5301C122.486 45.3616 121.948 44.2504 121.65 43.6401H121.618L121.184 47.0923C121.162 47.2471 121.153 47.361 121.153 47.5067C121.153 47.6752 121.275 47.7344 121.433 47.7663C121.591 47.7982 121.668 47.8073 121.754 47.8073C121.84 47.8073 121.898 47.8483 121.898 47.8893C121.898 47.9713 121.817 47.994 121.681 47.994C121.302 47.994 120.886 47.9622 120.723 47.9622C120.547 47.9622 120.113 47.994 119.824 47.994C119.729 47.994 119.656 47.9713 119.656 47.8893C119.656 47.8483 119.706 47.8073 119.801 47.8073C119.873 47.8073 119.937 47.8073 120.081 47.7891C120.33 47.7572 120.411 47.4065 120.452 47.115L121.347 41.3447Z" fill="white"/>
<path d="M130.22 43.8723C130.22 42.5333 130.22 42.2828 130.211 42.0004C130.189 41.6998 130.107 41.6042 129.818 41.5222C129.746 41.4994 129.592 41.4903 129.456 41.4903C129.361 41.4903 129.303 41.4584 129.303 41.3947C129.303 41.3309 129.375 41.3127 129.511 41.3127C129.985 41.3127 130.564 41.3355 130.821 41.3355C131.111 41.3355 133.122 41.3446 133.299 41.3355C133.466 41.3264 133.606 41.2945 133.678 41.2854C133.728 41.2763 133.782 41.2444 133.823 41.2444C133.873 41.2444 133.886 41.2854 133.886 41.3264C133.886 41.3901 133.836 41.4949 133.814 41.9002C133.805 41.9959 133.782 42.3784 133.764 42.4832C133.755 42.5242 133.732 42.6289 133.66 42.6289C133.597 42.6289 133.588 42.5879 133.588 42.5151C133.588 42.4513 133.579 42.2964 133.525 42.1917C133.452 42.0368 133.38 41.9093 132.928 41.8683C132.774 41.8456 131.689 41.8273 131.504 41.8273C131.463 41.8273 131.441 41.8592 131.441 41.9093V44.0909C131.441 44.141 131.45 44.1865 131.504 44.1865C131.712 44.1865 132.887 44.1865 133.091 44.1637C133.308 44.141 133.443 44.1227 133.525 44.0271C133.597 43.9633 133.629 43.9132 133.669 43.9132C133.71 43.9132 133.742 43.9542 133.742 44.0089C133.742 44.0635 133.719 44.2047 133.669 44.6556C133.651 44.8332 133.629 45.1885 133.629 45.2477C133.629 45.3205 133.619 45.4435 133.534 45.4435C133.47 45.4435 133.452 45.4116 133.452 45.3706C133.443 45.275 133.443 45.1611 133.421 45.0473C133.371 44.8697 133.253 44.733 132.914 44.7057C132.747 44.6875 131.716 44.6647 131.49 44.6647C131.45 44.6647 131.441 44.7057 131.441 44.7604V45.4663C131.441 45.7669 131.432 46.5183 131.441 46.7779C131.463 47.3791 131.739 47.5158 132.67 47.5158C132.905 47.5158 133.29 47.5066 133.525 47.4019C133.751 47.2971 133.855 47.1104 133.918 46.7461C133.94 46.6504 133.958 46.6094 134.022 46.6094C134.094 46.6094 134.103 46.7233 134.103 46.8189C134.103 47.0148 134.031 47.6205 133.981 47.7981C133.918 48.0258 133.836 48.0258 133.497 48.0258C132.815 48.0258 132.268 48.0167 131.825 47.994C131.382 47.9849 131.043 47.9712 130.772 47.9712C130.668 47.9712 130.473 47.9803 130.256 47.9803C130.039 47.9894 129.813 48.0031 129.628 48.0031C129.515 48.0031 129.452 47.9712 129.452 47.9074C129.452 47.8664 129.483 47.8118 129.596 47.8118C129.732 47.8118 129.836 47.8027 129.917 47.7799C130.103 47.7389 130.152 47.5704 130.184 47.3108C130.225 46.9373 130.225 46.2405 130.225 45.4299V43.8723H130.22Z" fill="white"/>
<path d="M139.225 40.1833C139.256 40.0056 139.32 39.9146 139.401 39.9146C139.482 39.9146 139.546 39.9646 139.681 40.2379L142.497 46.0994L145.304 40.165C145.386 39.9965 145.44 39.9146 145.53 39.9146C145.625 39.9146 145.684 40.0193 145.716 40.2379L146.656 46.6641C146.751 47.32 146.85 47.6205 147.162 47.7162C147.461 47.8118 147.669 47.8209 147.804 47.8209C147.899 47.8209 147.971 47.83 147.971 47.8938C147.971 47.9758 147.849 48.0077 147.705 48.0077C147.447 48.0077 146.023 47.9758 145.612 47.9439C145.372 47.9211 145.313 47.8938 145.313 47.83C145.313 47.7799 145.354 47.7481 145.426 47.7162C145.49 47.6934 145.521 47.5613 145.476 47.2699L144.857 42.6973H144.816L142.565 47.4156C142.33 47.9029 142.276 47.9986 142.185 47.9986C142.09 47.9986 141.991 47.7891 141.824 47.4794C141.575 47.0012 140.762 45.4117 140.635 45.1202C140.54 44.9016 139.921 43.5899 139.564 42.8111H139.523L138.985 46.9465C138.967 47.1332 138.953 47.2699 138.953 47.4338C138.953 47.6297 139.089 47.7253 139.261 47.7663C139.446 47.8073 139.591 47.8164 139.695 47.8164C139.776 47.8164 139.848 47.8392 139.848 47.8893C139.848 47.9849 139.754 48.0031 139.6 48.0031C139.166 48.0031 138.7 47.9712 138.515 47.9712C138.321 47.9712 137.823 48.0031 137.493 48.0031C137.389 48.0031 137.308 47.9803 137.308 47.8893C137.308 47.8392 137.371 47.8164 137.475 47.8164C137.557 47.8164 137.629 47.8164 137.783 47.7845C138.072 47.7207 138.153 47.3154 138.208 46.9647L139.225 40.1833Z" fill="white"/>
<path d="M148.044 44.651C148.044 43.1435 149.097 41.1897 151.85 41.1897C154.142 41.1897 155.565 42.4695 155.565 44.4962C155.565 46.5229 154.101 48.1123 151.759 48.1123C149.12 48.1123 148.044 46.2223 148.044 44.651ZM154.214 44.8195C154.214 42.8657 153.048 41.6588 151.583 41.6588C150.571 41.6588 149.386 42.2008 149.386 44.3823C149.386 46.1995 150.417 47.6341 152.13 47.6341C152.772 47.6341 154.214 47.3335 154.214 44.8195Z" fill="white"/>
<path d="M156.944 43.8723C156.944 42.5333 156.944 42.2828 156.935 42.0005C156.912 41.6999 156.831 41.6042 156.542 41.5222C156.47 41.4995 156.316 41.4904 156.18 41.4904C156.085 41.4904 156.027 41.4585 156.027 41.3947C156.027 41.331 156.099 41.3127 156.234 41.3127C156.709 41.3127 157.288 41.3355 157.545 41.3355C157.826 41.3355 158.472 41.3127 159.019 41.3127C160.154 41.3127 161.681 41.3127 162.671 42.3193C163.123 42.7747 163.526 43.5171 163.526 44.5646C163.526 45.6758 163.051 46.5184 162.536 47.0285C162.124 47.4429 161.162 48.0669 159.494 48.0669C159.164 48.0669 158.77 48.035 158.409 48.0168C158.047 47.9849 157.717 47.9667 157.491 47.9667C157.387 47.9667 157.193 47.9758 156.976 47.9758C156.759 47.9849 156.533 47.9986 156.347 47.9986C156.234 47.9986 156.171 47.9667 156.171 47.9029C156.171 47.8619 156.203 47.8073 156.316 47.8073C156.451 47.8073 156.555 47.7982 156.637 47.7754C156.822 47.7344 156.872 47.5659 156.903 47.3063C156.944 46.9328 156.944 46.236 156.944 45.4253V43.8723ZM158.165 44.8515C158.165 45.7851 158.174 46.4637 158.187 46.6414C158.196 46.86 158.219 47.1697 158.291 47.2653C158.404 47.4338 158.766 47.6205 159.475 47.6205C160.303 47.6205 160.908 47.4748 161.455 47.0194C162.043 46.5321 162.228 45.7396 162.228 44.8242C162.228 43.7038 161.785 42.9751 161.383 42.6198C160.547 41.8729 159.557 41.7773 158.843 41.7773C158.657 41.7773 158.359 41.8001 158.287 41.8411C158.205 41.8729 158.174 41.9139 158.174 42.0187C158.165 42.3193 158.165 43.048 158.165 43.7448V44.8515Z" fill="white"/>
<path d="M165.108 43.8723C165.108 42.5333 165.108 42.2828 165.099 42.0005C165.076 41.6999 164.986 41.5951 164.787 41.5314C164.683 41.4995 164.57 41.4904 164.457 41.4904C164.362 41.4904 164.312 41.4721 164.312 41.3856C164.312 41.3355 164.385 41.3127 164.529 41.3127C164.868 41.3127 165.487 41.3355 165.745 41.3355C165.971 41.3355 166.559 41.3127 166.911 41.3127C167.024 41.3127 167.097 41.3355 167.097 41.3856C167.097 41.4676 167.047 41.4904 166.952 41.4904C166.857 41.4904 166.785 41.4995 166.685 41.5222C166.437 41.5632 166.364 41.6908 166.346 42.0005C166.324 42.2828 166.324 42.5288 166.324 43.8723V45.4299C166.324 46.2816 166.324 46.9875 166.364 47.3655C166.396 47.6069 166.459 47.739 166.726 47.7799C166.848 47.8027 167.056 47.8118 167.192 47.8118C167.296 47.8118 167.336 47.8619 167.336 47.9075C167.336 47.9712 167.264 48.0031 167.16 48.0031C166.563 48.0031 165.944 47.9712 165.695 47.9712C165.487 47.9712 164.868 48.0031 164.511 48.0031C164.398 48.0031 164.335 47.9712 164.335 47.9075C164.335 47.8665 164.366 47.8118 164.479 47.8118C164.615 47.8118 164.719 47.8027 164.8 47.7799C164.986 47.739 165.035 47.6114 165.067 47.3518C165.108 46.9875 165.108 46.2816 165.108 45.4299V43.8723Z" fill="white"/>
<path d="M170.211 45.4617C170.211 46.3134 170.22 46.9373 170.261 47.3108C170.293 47.5704 170.356 47.7389 170.623 47.7799C170.745 47.8027 170.943 47.8118 171.065 47.8118C171.179 47.8118 171.219 47.8619 171.219 47.9074C171.219 47.9712 171.156 48.0031 171.025 48.0031C170.446 48.0031 169.809 47.9712 169.569 47.9712C169.33 47.9712 168.756 48.0031 168.412 48.0031C168.29 48.0031 168.227 47.9803 168.227 47.9074C168.227 47.8664 168.258 47.8118 168.362 47.8118C168.498 47.8118 168.602 47.8027 168.683 47.7799C168.869 47.7389 168.918 47.5704 168.95 47.3108C168.991 46.9373 168.991 46.2815 168.991 45.4298V43.8723C168.991 42.5333 168.991 42.2828 168.982 42.0004C168.959 41.6998 168.878 41.5951 168.588 41.5222C168.516 41.4994 168.362 41.4903 168.227 41.4903C168.145 41.4903 168.073 41.4584 168.073 41.3947C168.073 41.3309 168.145 41.3127 168.29 41.3127C168.756 41.3127 169.334 41.3355 169.592 41.3355C169.944 41.3355 171.956 41.3446 172.173 41.3355C172.34 41.3264 172.453 41.3127 172.544 41.2945C172.593 41.2854 172.639 41.2444 172.688 41.2444C172.72 41.2444 172.752 41.2854 172.752 41.3264C172.752 41.3901 172.711 41.4949 172.679 41.7226C172.67 41.8182 172.648 42.3374 172.639 42.4376C172.63 42.5105 172.607 42.6153 172.544 42.6153C172.48 42.6153 172.431 42.5743 172.431 42.4695C172.431 42.3966 172.44 42.26 172.381 42.137C172.318 42.0141 172.141 41.8774 171.802 41.8683L170.297 41.8365C170.247 41.8365 170.216 41.8592 170.216 41.9594V44.1C170.216 44.1501 170.225 44.182 170.279 44.182L171.549 44.1728C171.703 44.1728 171.829 44.1728 171.961 44.1637C172.128 44.1546 172.259 44.1227 172.34 44.0089C172.39 43.9588 172.413 43.9132 172.462 43.9132C172.494 43.9132 172.512 43.9451 172.512 43.9952C172.512 44.0453 172.471 44.2867 172.44 44.5645C172.417 44.7421 172.408 45.1475 172.408 45.2112C172.408 45.2841 172.399 45.4071 172.304 45.4071C172.254 45.4071 172.223 45.3433 172.223 45.2841C172.223 45.2203 172.205 45.1156 172.159 45.0154C172.119 44.8924 172.006 44.7148 171.725 44.692C171.499 44.6693 170.424 44.6602 170.27 44.6602C170.229 44.6602 170.207 44.6693 170.207 44.733V45.4617H170.211Z" fill="white"/>
<path d="M174.329 43.8723C174.329 42.5333 174.329 42.2828 174.32 42.0005C174.298 41.6999 174.207 41.5951 174.008 41.5314C173.904 41.4995 173.791 41.4904 173.678 41.4904C173.583 41.4904 173.534 41.4721 173.534 41.3856C173.534 41.3355 173.606 41.3127 173.751 41.3127C174.09 41.3127 174.709 41.3355 174.967 41.3355C175.193 41.3355 175.78 41.3127 176.133 41.3127C176.246 41.3127 176.318 41.3355 176.318 41.3856C176.318 41.4676 176.268 41.4904 176.173 41.4904C176.078 41.4904 176.006 41.4995 175.907 41.5222C175.658 41.5632 175.586 41.6908 175.568 42.0005C175.545 42.2828 175.545 42.5288 175.545 43.8723V45.4299C175.545 46.2816 175.545 46.9875 175.586 47.3655C175.617 47.6069 175.681 47.739 175.947 47.7799C176.069 47.8027 176.277 47.8118 176.413 47.8118C176.517 47.8118 176.558 47.8619 176.558 47.9075C176.558 47.9712 176.485 48.0031 176.381 48.0031C175.785 48.0031 175.165 47.9712 174.917 47.9712C174.709 47.9712 174.09 48.0031 173.732 48.0031C173.619 48.0031 173.556 47.9712 173.556 47.9075C173.556 47.8665 173.588 47.8118 173.701 47.8118C173.836 47.8118 173.94 47.8027 174.022 47.7799C174.207 47.739 174.257 47.6114 174.288 47.3518C174.329 46.9875 174.329 46.2816 174.329 45.4299V43.8723Z" fill="white"/>
<path d="M178.257 47.1559C177.358 46.3953 177.123 45.3979 177.123 44.5463C177.123 43.9451 177.317 42.9021 178.185 42.1233C178.845 41.5404 179.713 41.1897 181.064 41.1897C181.634 41.1897 181.973 41.2307 182.384 41.2853C182.723 41.3354 183.026 41.3992 183.293 41.4311C183.397 41.4402 183.428 41.4812 183.428 41.5358C183.428 41.6087 183.406 41.7134 183.388 42.0231C183.365 42.3146 183.365 42.8019 183.356 42.9796C183.347 43.1025 183.315 43.1982 183.234 43.1982C183.162 43.1982 183.139 43.1253 183.139 43.0114C183.13 42.7291 183.017 42.4194 182.787 42.1917C182.479 41.8911 181.869 41.6725 181.033 41.6725C180.237 41.6725 179.731 41.8182 179.32 42.1734C178.651 42.7564 178.483 43.6081 178.483 44.4688C178.483 46.5684 180.093 47.5658 181.308 47.5658C182.113 47.5658 182.556 47.5021 182.918 47.0967C183.071 46.9191 183.198 46.6686 183.225 46.5046C183.248 46.368 183.266 46.327 183.338 46.327C183.401 46.327 183.442 46.409 183.442 46.4819C183.442 46.5866 183.338 47.3563 183.248 47.6569C183.207 47.8118 183.166 47.8527 183.008 47.9165C182.646 48.0622 181.955 48.1123 181.367 48.1123C180.133 48.1123 179.084 47.8527 178.257 47.1559Z" fill="white"/>
<path d="M185.467 45.776C185.417 45.776 185.404 45.7851 185.386 45.8397L184.902 47.0239C184.807 47.2425 184.766 47.4611 184.766 47.5658C184.766 47.7207 184.848 47.8163 185.128 47.8163H185.264C185.377 47.8163 185.399 47.8573 185.399 47.912C185.399 47.9848 185.35 48.0076 185.255 48.0076C184.956 48.0076 184.531 47.9757 184.242 47.9757C184.147 47.9757 183.663 48.0076 183.189 48.0076C183.076 48.0076 183.022 47.9848 183.022 47.912C183.022 47.8619 183.053 47.8163 183.126 47.8163C183.207 47.8163 183.311 47.8072 183.392 47.8072C183.804 47.7435 183.962 47.4748 184.147 47.0284L186.52 41.4675C186.624 41.2171 186.697 41.1123 186.787 41.1123C186.923 41.1123 186.963 41.1943 187.054 41.3947C187.271 41.882 188.785 45.5027 189.364 46.8417C189.716 47.6433 189.974 47.7571 190.137 47.789C190.272 47.8118 190.376 47.8209 190.476 47.8209C190.557 47.8209 190.598 47.8528 190.598 47.9165C190.598 47.9894 190.548 48.0122 190.204 48.0122C189.883 48.0122 189.223 48.0122 188.46 47.9894C188.292 47.9803 188.193 47.9803 188.193 47.9165C188.193 47.8664 188.211 47.8345 188.306 47.8209C188.369 47.8118 188.428 47.7252 188.387 47.625L187.687 45.8488C187.664 45.7987 187.637 45.7851 187.592 45.7851H185.467V45.776ZM187.406 45.2841C187.447 45.2841 187.456 45.2613 187.447 45.234L186.593 42.9887C186.584 42.9568 186.57 42.9067 186.552 42.9067C186.52 42.9067 186.511 42.9568 186.502 42.9887L185.625 45.2249C185.603 45.2659 185.625 45.2887 185.657 45.2887H187.406V45.2841Z" fill="white"/>
<path d="M191.823 41.8548L190.471 41.8867C189.947 41.8958 189.73 41.9595 189.594 42.1554C189.499 42.2783 189.458 42.3968 189.44 42.456C189.418 42.5288 189.4 42.5698 189.336 42.5698C189.273 42.5698 189.255 42.5197 189.255 42.4241C189.255 42.2784 189.431 41.4267 189.449 41.3538C189.468 41.24 189.499 41.1853 189.553 41.1853C189.626 41.1853 189.721 41.2582 189.947 41.2901C190.213 41.3219 190.557 41.331 190.855 41.331H194.539C194.829 41.331 195.023 41.3083 195.159 41.2901C195.303 41.2673 195.376 41.2491 195.407 41.2491C195.47 41.2491 195.48 41.2992 195.48 41.4358C195.48 41.6225 195.457 42.2784 195.457 42.5061C195.448 42.6017 195.425 42.6518 195.376 42.6518C195.303 42.6518 195.281 42.6108 195.272 42.4742L195.263 42.3785C195.24 42.1508 195.005 41.8776 194.191 41.8685L193.048 41.8502V45.4254C193.048 46.2361 193.057 46.9329 193.097 47.32C193.129 47.5705 193.179 47.7345 193.45 47.7755C193.572 47.7982 193.78 47.8074 193.915 47.8074C194.019 47.8074 194.06 47.8575 194.06 47.903C194.06 47.9668 193.988 47.9986 193.884 47.9986C193.287 47.9986 192.677 47.9668 192.419 47.9668C192.211 47.9668 191.592 47.9986 191.235 47.9986C191.122 47.9986 191.059 47.9668 191.059 47.903C191.059 47.862 191.09 47.8074 191.203 47.8074C191.339 47.8074 191.452 47.7982 191.524 47.7755C191.71 47.7345 191.759 47.566 191.791 47.3064C191.832 46.9329 191.832 46.2361 191.832 45.4254V41.8548H191.823Z" fill="white"/>
<path d="M196.836 43.8723C196.836 42.5333 196.836 42.2828 196.827 42.0005C196.804 41.6999 196.714 41.5951 196.515 41.5314C196.411 41.4995 196.298 41.4904 196.185 41.4904C196.09 41.4904 196.04 41.4721 196.04 41.3856C196.04 41.3355 196.112 41.3127 196.257 41.3127C196.596 41.3127 197.215 41.3355 197.473 41.3355C197.699 41.3355 198.287 41.3127 198.639 41.3127C198.752 41.3127 198.825 41.3355 198.825 41.3856C198.825 41.4676 198.775 41.4904 198.68 41.4904C198.585 41.4904 198.513 41.4995 198.413 41.5222C198.165 41.5632 198.092 41.6908 198.074 42.0005C198.052 42.2828 198.052 42.5288 198.052 43.8723V45.4299C198.052 46.2816 198.052 46.9875 198.092 47.3655C198.124 47.6069 198.187 47.739 198.454 47.7799C198.576 47.8027 198.784 47.8118 198.919 47.8118C199.023 47.8118 199.064 47.8619 199.064 47.9075C199.064 47.9712 198.992 48.0031 198.888 48.0031C198.291 48.0031 197.672 47.9712 197.423 47.9712C197.215 47.9712 196.596 48.0031 196.239 48.0031C196.126 48.0031 196.063 47.9712 196.063 47.9075C196.063 47.8665 196.094 47.8118 196.207 47.8118C196.343 47.8118 196.447 47.8027 196.528 47.7799C196.714 47.739 196.763 47.6114 196.795 47.3518C196.836 46.9875 196.836 46.2816 196.836 45.4299V43.8723Z" fill="white"/>
<path d="M199.629 44.651C199.629 43.1435 200.682 41.1897 203.435 41.1897C205.727 41.1897 207.151 42.4695 207.151 44.4962C207.151 46.5229 205.686 48.1123 203.345 48.1123C200.705 48.1123 199.629 46.2223 199.629 44.651ZM205.799 44.8195C205.799 42.8657 204.633 41.6588 203.169 41.6588C202.156 41.6588 200.972 42.2008 200.972 44.3823C200.972 46.1995 202.002 47.6341 203.715 47.6341C204.357 47.6341 205.799 47.3335 205.799 44.8195Z" fill="white"/>
<path d="M209.099 46.7916C209.117 47.4793 209.235 47.6842 209.406 47.748C209.56 47.7981 209.736 47.8117 209.881 47.8117C209.985 47.8117 210.035 47.8527 210.035 47.9074C210.035 47.9802 209.953 48.003 209.827 48.003C209.239 48.003 208.814 47.9711 208.652 47.9711C208.57 47.9711 208.136 48.003 207.671 48.003C207.549 48.003 207.463 47.9939 207.463 47.9074C207.463 47.8573 207.526 47.8117 207.607 47.8117C207.729 47.8117 207.897 47.8026 208.019 47.7707C208.254 47.707 208.285 47.4702 208.299 46.7005L208.38 41.4629C208.38 41.2853 208.444 41.1624 208.534 41.1624C208.647 41.1624 208.774 41.299 208.927 41.4538C209.04 41.5677 210.401 42.9704 211.725 44.273C212.345 44.8878 213.552 46.1357 213.687 46.2587H213.728L213.633 42.3283C213.624 41.7863 213.538 41.6315 213.321 41.5495C213.185 41.4994 212.968 41.4994 212.846 41.4994C212.733 41.4994 212.702 41.4584 212.702 41.4037C212.702 41.3309 212.797 41.3218 212.928 41.3218C213.402 41.3218 213.886 41.3445 214.085 41.3445C214.189 41.3445 214.528 41.3218 214.971 41.3218C215.093 41.3218 215.179 41.3309 215.179 41.4037C215.179 41.4538 215.129 41.4994 215.025 41.4994C214.93 41.4994 214.858 41.4994 214.745 41.5313C214.496 41.6041 214.424 41.759 214.415 42.26L214.32 47.8208C214.32 48.0167 214.248 48.1032 214.175 48.1032C214.022 48.1032 213.895 48.0076 213.805 47.9165C213.235 47.3882 212.101 46.2951 211.151 45.3706C210.161 44.4142 209.203 43.3439 209.027 43.189H208.995L209.099 46.7916Z" fill="white"/>
<path d="M220.043 47.0103C219.03 46.1176 218.763 44.9517 218.763 43.9452C218.763 43.2393 218.98 42.0096 219.97 41.0987C220.712 40.411 221.693 39.9966 223.23 39.9966C223.871 39.9966 224.251 40.0376 224.726 40.1013C225.119 40.1514 225.449 40.2471 225.756 40.279C225.869 40.2881 225.91 40.3427 225.91 40.4019C225.91 40.4839 225.878 40.6114 225.86 40.9758C225.838 41.3173 225.851 41.8912 225.829 42.0961C225.82 42.251 225.797 42.3375 225.707 42.3375C225.625 42.3375 225.603 42.2555 225.603 42.1098C225.594 41.7864 225.458 41.4221 225.2 41.1534C224.861 40.789 224.057 40.5067 223.107 40.5067C222.208 40.5067 221.62 40.7344 221.168 41.1534C220.413 41.8502 220.219 42.8385 220.219 43.845C220.219 46.318 222.086 47.5477 223.469 47.5477C224.387 47.5477 224.943 47.443 225.359 46.9648C225.535 46.7689 225.666 46.4638 225.711 46.2771C225.743 46.1085 225.761 46.0676 225.847 46.0676C225.919 46.0676 225.942 46.1404 225.942 46.2224C225.942 46.3454 225.82 47.2517 225.716 47.6069C225.666 47.7845 225.621 47.8346 225.449 47.9075C225.038 48.076 224.251 48.1443 223.591 48.1443C222.167 48.1443 220.983 47.8346 220.043 47.0103Z" fill="white"/>
<path d="M226.633 44.651C226.633 43.1435 227.687 41.1897 230.439 41.1897C232.731 41.1897 234.155 42.4695 234.155 44.4962C234.155 46.5229 232.69 48.1123 230.349 48.1123C227.709 48.1123 226.633 46.2223 226.633 44.651ZM232.804 44.8195C232.804 42.8657 231.637 41.6588 230.173 41.6588C229.16 41.6588 227.976 42.2008 227.976 44.3823C227.976 46.1995 229.006 47.6341 230.72 47.6341C231.362 47.6341 232.804 47.3335 232.804 44.8195Z" fill="white"/>
<path d="M236.135 41.3447C236.158 41.1989 236.239 41.1169 236.311 41.1169C236.406 41.1169 236.465 41.1579 236.591 41.3993L239.028 46.3271L241.464 41.3356C241.537 41.1898 241.618 41.1169 241.704 41.1169C241.776 41.1169 241.88 41.2126 241.912 41.3993L242.739 46.8554C242.82 47.4065 242.906 47.6434 243.182 47.7299C243.44 47.8028 243.584 47.8119 243.697 47.8119C243.779 47.8119 243.842 47.8437 243.842 47.8938C243.842 47.9667 243.738 47.9986 243.602 47.9986C243.376 47.9986 242.084 47.9576 241.727 47.9348C241.51 47.9257 241.46 47.8847 241.46 47.8301C241.46 47.7891 241.501 47.7572 241.564 47.7344C241.614 47.7117 241.636 47.6115 241.604 47.361L241.098 43.5353H241.067L239.118 47.484C238.91 47.8984 238.861 47.9849 238.757 47.9849C238.644 47.9849 238.54 47.8073 238.395 47.5386C238.178 47.1333 237.455 45.7806 237.351 45.5301C237.279 45.3616 236.741 44.2504 236.442 43.6401H236.411L235.977 47.0923C235.959 47.2471 235.945 47.361 235.945 47.5067C235.945 47.6752 236.067 47.7344 236.225 47.7663C236.379 47.7982 236.465 47.8073 236.546 47.8073C236.628 47.8073 236.691 47.8483 236.691 47.8893C236.691 47.9713 236.61 47.994 236.474 47.994C236.094 47.994 235.678 47.9622 235.516 47.9622C235.339 47.9622 234.905 47.994 234.616 47.994C234.521 47.994 234.449 47.9713 234.449 47.8893C234.449 47.8483 234.499 47.8073 234.594 47.8073C234.666 47.8073 234.729 47.8073 234.874 47.7891C235.122 47.7572 235.204 47.4065 235.244 47.115L236.135 41.3447Z" fill="white"/>
<path d="M245.008 43.8723C245.008 42.5333 245.008 42.2828 244.999 42.0005C244.977 41.6999 244.895 41.6042 244.606 41.5222C244.534 41.4995 244.38 41.4904 244.244 41.4904C244.149 41.4904 244.091 41.4585 244.091 41.3947C244.091 41.331 244.163 41.3127 244.299 41.3127C244.773 41.3127 245.352 41.3355 245.609 41.3355C245.98 41.3355 246.703 41.3127 247.115 41.3127C248.249 41.3127 248.661 41.6862 248.805 41.8137C249 42.0005 249.257 42.3967 249.257 42.8749C249.257 44.1228 248.267 45.0154 246.979 45.0154C246.938 45.0154 246.753 45.0154 246.712 45.0063C246.663 45.0063 246.599 44.9745 246.599 44.9107C246.599 44.8378 246.703 44.7968 246.898 44.7968C247.404 44.7968 248.114 44.264 248.114 43.3622C248.114 43.0707 248.082 42.4878 247.576 42.0506C247.246 41.7591 246.875 41.7181 246.667 41.7181C246.532 41.7181 246.36 41.7272 246.274 41.7591C246.224 41.7818 246.202 41.8319 246.202 41.9276V45.4299C246.202 46.2406 246.202 46.9374 246.242 47.3245C246.274 47.575 246.324 47.739 246.595 47.7799C246.73 47.8027 246.925 47.8118 247.06 47.8118C247.164 47.8118 247.205 47.8619 247.205 47.9075C247.205 47.9712 247.133 48.0031 247.038 48.0031C246.428 48.0031 245.79 47.9712 245.551 47.9712C245.343 47.9712 244.764 48.0031 244.407 48.0031C244.294 48.0031 244.231 47.9712 244.231 47.9075C244.231 47.8665 244.262 47.8118 244.375 47.8118C244.511 47.8118 244.615 47.8027 244.696 47.7799C244.882 47.739 244.931 47.5704 244.963 47.3108C245.004 46.9374 245.004 46.2406 245.004 45.4299V43.8723H245.008Z" fill="white"/>
<path d="M250.722 45.776C250.672 45.776 250.659 45.7851 250.64 45.8397L250.157 47.0239C250.062 47.2425 250.021 47.4611 250.021 47.5658C250.021 47.7207 250.103 47.8163 250.383 47.8163H250.518C250.631 47.8163 250.654 47.8573 250.654 47.912C250.654 47.9848 250.604 48.0076 250.509 48.0076C250.211 48.0076 249.786 47.9757 249.497 47.9757C249.402 47.9757 248.918 48.0076 248.444 48.0076C248.331 48.0076 248.276 47.9848 248.276 47.912C248.276 47.8619 248.308 47.8163 248.38 47.8163C248.462 47.8163 248.566 47.8072 248.647 47.8072C249.058 47.7435 249.212 47.4748 249.402 47.0284L251.775 41.4675C251.879 41.2171 251.951 41.1123 252.042 41.1123C252.177 41.1123 252.218 41.1943 252.308 41.3947C252.525 41.882 254.04 45.5027 254.618 46.8417C254.971 47.6433 255.229 47.7571 255.391 47.789C255.527 47.8118 255.631 47.8209 255.73 47.8209C255.812 47.8209 255.852 47.8528 255.852 47.9165C255.852 47.9894 255.803 48.0122 255.459 48.0122C255.138 48.0122 254.478 48.0122 253.714 47.9894C253.547 47.9803 253.448 47.9803 253.448 47.9165C253.448 47.8664 253.466 47.8345 253.561 47.8209C253.624 47.8118 253.683 47.7252 253.642 47.625L252.941 45.8488C252.923 45.7987 252.892 45.7851 252.846 45.7851H250.722V45.776ZM252.661 45.2841C252.702 45.2841 252.711 45.2613 252.702 45.234L251.847 42.9887C251.838 42.9568 251.825 42.9067 251.807 42.9067C251.775 42.9067 251.766 42.9568 251.757 42.9887L250.876 45.2249C250.853 45.2659 250.876 45.2887 250.907 45.2887H252.661V45.2841Z" fill="white"/>
<path d="M257.105 46.7916C257.123 47.4793 257.24 47.6842 257.412 47.748C257.566 47.7981 257.742 47.8117 257.887 47.8117C257.99 47.8117 258.04 47.8527 258.04 47.9074C258.04 47.9802 257.959 48.003 257.832 48.003C257.245 48.003 256.82 47.9711 256.657 47.9711C256.576 47.9711 256.142 48.003 255.676 48.003C255.554 48.003 255.468 47.9939 255.468 47.9074C255.468 47.8573 255.531 47.8117 255.613 47.8117C255.735 47.8117 255.902 47.8026 256.024 47.7707C256.259 47.707 256.291 47.4702 256.304 46.7005L256.386 41.4629C256.386 41.2853 256.449 41.1624 256.539 41.1624C256.652 41.1624 256.779 41.299 256.933 41.4538C257.046 41.5677 258.406 42.9704 259.731 44.273C260.35 44.8878 261.557 46.1357 261.693 46.2587H261.733L261.638 42.3283C261.629 41.7863 261.543 41.6315 261.326 41.5495C261.191 41.4994 260.974 41.4994 260.852 41.4994C260.739 41.4994 260.707 41.4584 260.707 41.4037C260.707 41.3309 260.802 41.3218 260.933 41.3218C261.408 41.3218 261.891 41.3445 262.09 41.3445C262.194 41.3445 262.533 41.3218 262.976 41.3218C263.098 41.3218 263.184 41.3309 263.184 41.4037C263.184 41.4538 263.135 41.4994 263.031 41.4994C262.936 41.4994 262.863 41.4994 262.75 41.5313C262.502 41.6041 262.429 41.759 262.42 42.26L262.325 47.8208C262.325 48.0167 262.253 48.1032 262.181 48.1032C262.027 48.1032 261.901 48.0076 261.81 47.9165C261.241 47.3882 260.106 46.2951 259.157 45.3706C258.167 44.4142 257.208 43.3439 257.032 43.189H257.001L257.105 46.7916Z" fill="white"/>
<path d="M265.883 45.703C265.883 45.2248 265.802 45.0381 265.675 44.7785C265.612 44.6418 264.373 42.6971 264.057 42.2326C263.831 41.9092 263.645 41.7043 263.469 41.6086C263.356 41.5449 263.202 41.4948 263.089 41.4948C263.017 41.4948 262.954 41.4629 262.954 41.3991C262.954 41.3354 263.017 41.3171 263.13 41.3171C263.284 41.3171 263.966 41.3399 264.265 41.3399C264.459 41.3399 264.884 41.3171 265.295 41.3171C265.377 41.3171 265.431 41.3399 265.431 41.3991C265.431 41.472 265.368 41.472 265.223 41.513C265.151 41.5357 265.101 41.5767 265.101 41.6496C265.101 41.7225 265.142 41.8272 265.214 41.9502C265.381 42.2189 266.565 44.2911 266.719 44.5371C266.832 44.3276 267.935 42.4375 268.071 42.1688C268.166 41.973 268.206 41.8136 268.206 41.6997C268.206 41.6177 268.166 41.5312 268.012 41.5039C267.931 41.4811 267.845 41.472 267.845 41.3991C267.845 41.3354 267.894 41.3171 267.998 41.3171C268.297 41.3171 268.618 41.3399 268.884 41.3399C269.079 41.3399 269.68 41.3171 269.856 41.3171C269.96 41.3171 270.023 41.3399 270.023 41.39C270.023 41.4538 269.951 41.4948 269.847 41.4948C269.752 41.4948 269.589 41.5357 269.454 41.5995C269.26 41.6951 269.174 41.7771 268.979 42.014C268.681 42.3692 267.379 44.4688 267.216 44.8422C267.081 45.1656 267.103 45.4343 267.103 45.7258V46.4317C267.103 46.5774 267.103 46.9418 267.126 47.3152C267.144 47.5748 267.23 47.7434 267.497 47.7843C267.632 47.8071 267.827 47.8162 267.949 47.8162C268.053 47.8162 268.102 47.8663 268.102 47.9119C268.102 47.9756 268.03 48.0075 267.908 48.0075C267.343 48.0075 266.733 47.9756 266.484 47.9756C266.258 47.9756 265.648 48.0075 265.309 48.0075C265.187 48.0075 265.114 47.9847 265.114 47.9119C265.114 47.8709 265.155 47.8162 265.259 47.8162C265.381 47.8162 265.494 47.8071 265.58 47.7843C265.765 47.7434 265.838 47.5748 265.86 47.3152C265.892 46.9418 265.892 46.5774 265.892 46.4317V45.703H265.883Z" fill="white"/>
<path d="M254.501 34.0161C254.501 35.1138 254.501 35.7058 254.682 35.8607C254.826 35.9882 255.048 36.0474 255.712 36.0474C256.164 36.0474 256.494 36.0383 256.711 35.806C256.815 35.6922 256.915 35.4553 256.933 35.2914C256.942 35.2139 256.96 35.1638 257.028 35.1638C257.086 35.1638 257.095 35.2048 257.095 35.3096C257.095 35.4052 257.037 36.0474 256.969 36.2979C256.919 36.4846 256.874 36.5302 256.431 36.5302C255.816 36.5302 255.373 36.5119 254.994 36.5028C254.609 36.4846 254.302 36.4755 253.954 36.4755C253.859 36.4755 253.674 36.4755 253.47 36.4846C253.276 36.4846 253.054 36.5028 252.883 36.5028C252.77 36.5028 252.711 36.4755 252.711 36.4163C252.711 36.3753 252.747 36.348 252.846 36.348C252.973 36.348 253.077 36.3298 253.154 36.3116C253.326 36.2751 253.366 36.0884 253.402 35.8379C253.443 35.4781 253.443 34.7995 253.443 34.0116V32.4995C253.443 31.1924 253.443 30.9556 253.425 30.6778C253.407 30.3863 253.339 30.2497 253.059 30.1905C252.991 30.1723 252.887 30.1632 252.779 30.1632C252.684 30.1632 252.634 30.1449 252.634 30.0857C252.634 30.0265 252.693 30.0083 252.824 30.0083C253.226 30.0083 253.759 30.0356 253.99 30.0356C254.193 30.0356 254.817 30.0083 255.147 30.0083C255.265 30.0083 255.328 30.0265 255.328 30.0857C255.328 30.1449 255.278 30.1632 255.174 30.1632C255.079 30.1632 254.944 30.1723 254.84 30.1905C254.609 30.2315 254.541 30.3772 254.523 30.6778C254.505 30.9511 254.505 31.1924 254.505 32.4995V34.0161H254.501Z" fill="white"/>
<path d="M259.654 34.0164C259.654 35.114 259.654 35.7061 259.835 35.8609C259.979 35.9884 260.201 36.0476 260.865 36.0476C261.317 36.0476 261.647 36.0385 261.864 35.8063C261.968 35.6924 262.068 35.4556 262.086 35.2916C262.095 35.2142 262.113 35.1641 262.181 35.1641C262.24 35.1641 262.249 35.2051 262.249 35.3098C262.249 35.4055 262.19 36.0476 262.122 36.2981C262.072 36.4849 262.027 36.5304 261.584 36.5304C260.969 36.5304 260.526 36.5122 260.147 36.5031C259.762 36.4849 259.455 36.4757 259.107 36.4757C259.012 36.4757 258.827 36.4758 258.623 36.4849C258.429 36.4849 258.207 36.5031 258.036 36.5031C257.923 36.5031 257.864 36.4758 257.864 36.4165C257.864 36.3756 257.9 36.3482 258 36.3482C258.126 36.3482 258.23 36.33 258.307 36.3118C258.479 36.2754 258.519 36.0886 258.555 35.8381C258.596 35.4783 258.596 34.7997 258.596 34.0118V32.4998C258.596 31.1927 258.596 30.9559 258.578 30.678C258.56 30.3866 258.492 30.2499 258.212 30.1907C258.144 30.1725 258.04 30.1634 257.932 30.1634C257.837 30.1634 257.787 30.1452 257.787 30.086C257.787 30.0268 257.846 30.0085 257.977 30.0085C258.379 30.0085 258.913 30.0359 259.143 30.0359C259.347 30.0359 259.97 30.0085 260.3 30.0085C260.418 30.0085 260.481 30.0268 260.481 30.086C260.481 30.1452 260.431 30.1634 260.327 30.1634C260.233 30.1634 260.097 30.1725 259.993 30.1907C259.762 30.2317 259.695 30.3774 259.677 30.678C259.658 30.9513 259.658 31.1927 259.658 32.4998V34.0164H259.654Z" fill="white"/>
<path d="M263.826 35.6879C262.99 34.9501 262.768 33.9892 262.768 33.1557C262.768 32.5727 262.949 31.5617 263.767 30.8056C264.382 30.2409 265.191 29.8948 266.461 29.8948C266.99 29.8948 267.307 29.9312 267.695 29.9813C268.021 30.0223 268.292 30.0997 268.545 30.127C268.64 30.1362 268.672 30.1771 268.672 30.2318C268.672 30.3001 268.645 30.4049 268.631 30.7055C268.613 30.9878 268.622 31.4615 268.604 31.6345C268.595 31.7621 268.577 31.8304 268.5 31.8304C268.432 31.8304 268.414 31.7621 268.414 31.6437C268.405 31.3795 268.297 31.0789 268.084 30.8557C267.804 30.5552 267.139 30.3229 266.353 30.3229C265.612 30.3229 265.128 30.5096 264.753 30.8557C264.129 31.4296 263.971 32.2448 263.971 33.0783C263.971 35.1232 265.512 36.1343 266.656 36.1343C267.415 36.1343 267.872 36.0477 268.215 35.6515C268.36 35.4875 268.473 35.2416 268.505 35.0868C268.532 34.9501 268.545 34.9137 268.618 34.9137C268.676 34.9137 268.694 34.9729 268.694 35.0412C268.694 35.146 268.59 35.8929 268.505 36.1844C268.464 36.3301 268.428 36.3711 268.283 36.4348C267.944 36.5715 267.293 36.6307 266.751 36.6307C265.58 36.6261 264.599 36.3665 263.826 35.6879Z" fill="white"/>
<path fill-rule="evenodd" clip-rule="evenodd" d="M50.713 28.9749L50.4147 31.0927L46.2199 26.8708L50.4644 22.5942L50.7627 24.712L53.389 24.4843L50.8351 3.15618L29.4496 0.0546524L29.1513 2.77817L31.2532 3.07875L26.9092 7.4555L22.4387 2.95123L24.5406 2.65064L24.3146 0L3.14611 2.57322L0.0678042 24.1245L2.77093 24.4251L3.06927 22.3073L7.31381 26.5839L2.92462 31.0061L2.62628 28.8884L0 29.1206L2.55396 50.4487L23.9484 53.5503L24.2468 50.8268L22.1449 50.5262L26.629 46.0082L31.0453 50.4579L28.9433 50.7584L29.1694 53.4045L50.3378 50.8313L53.4161 29.2755L50.713 28.9749ZM44.8231 42.4649C44.0727 43.1526 43.345 43.8677 42.6353 44.6009C41.9482 45.3069 41.2023 45.3251 40.4972 44.692C39.783 44.0499 39.0597 43.3758 38.5128 42.597C37.1296 40.6204 35.5882 38.7076 33.9157 36.9496C33.8976 36.9314 33.875 36.9086 33.8569 36.8904C33.5992 36.6217 33.3416 36.353 33.0749 36.0934C32.9845 36.0023 32.8941 35.9203 32.8037 35.8292C32.6003 35.6334 32.3968 35.433 32.1934 35.2417C31.8861 34.9548 31.5742 34.6724 31.2532 34.3946C30.3311 33.593 28.0122 31.1473 26.7013 29.8083C24.1699 32.3451 21.6341 34.8819 19.0982 37.4096C18.9942 37.5098 18.9083 37.6191 18.8224 37.7238C18.7592 37.8013 18.7049 37.8787 18.6462 37.9607C17.9862 38.9216 17.8641 40.0693 17.9952 41.3719C18.3207 44.6374 15.8978 47.1241 12.4895 46.9419C13.145 45.7532 13.7236 44.5918 14.4061 43.5033C14.822 42.8475 14.7452 42.3101 14.1078 41.7226C13.6467 41.2945 13.2128 40.8163 12.7065 40.461C10.5594 38.949 9.88133 39.0628 8.77838 41.0349C8.37608 41.7545 7.96925 42.474 7.52175 43.262C5.51474 39.0355 7.63023 35.2781 11.7708 35.474C13.3167 35.5469 14.6005 35.1187 15.6176 34.1031C18.1534 31.5618 20.6848 29.025 23.2207 26.4837C23.0625 26.3243 22.8997 26.1649 22.737 25.9963C22.6873 25.9417 22.633 25.887 22.5788 25.8369C22.4613 25.7185 22.3483 25.6001 22.2307 25.4771C22.172 25.4179 22.1177 25.3587 22.059 25.2995C21.9414 25.1766 21.8239 25.0536 21.7019 24.9261C21.6521 24.8714 21.5979 24.8168 21.5482 24.7621C21.4126 24.6164 21.2724 24.4706 21.1323 24.3203C21.1052 24.293 21.0781 24.2657 21.0555 24.2338C19.1434 22.1934 17.1002 19.9163 15.4865 18.3587C15.2379 18.1173 14.9938 17.8896 14.7632 17.6846C13.0455 19.1739 11.694 20.7953 11.1515 22.7263C11.0114 23.2227 10.93 23.7374 10.9029 24.2748C10.9029 24.3112 10.8984 24.3522 10.8939 24.3886C10.8894 24.5162 10.8939 24.6482 10.8984 24.7803C10.8984 24.8669 10.9029 24.9579 10.9074 25.0445C10.9165 25.1583 10.9255 25.2768 10.9391 25.3952C10.9526 25.509 10.9662 25.6229 10.9843 25.7413C10.9978 25.846 11.0159 25.9508 11.034 26.0555C11.0611 26.2013 11.0973 26.347 11.1289 26.4928C11.1515 26.5793 11.1696 26.6658 11.1922 26.7524C11.2555 26.9892 11.3323 27.2306 11.4182 27.4811C11.2013 27.2943 10.9933 27.1031 10.7899 26.8981C10.7809 26.889 10.7763 26.8844 10.7673 26.8753C10.5639 26.6704 10.365 26.4609 10.1751 26.2423C10.1706 26.2377 10.1661 26.2332 10.1616 26.2286C9.96722 26.0054 9.78189 25.7732 9.60559 25.5364C9.4293 25.295 9.25753 25.049 9.09932 24.794C7.05164 21.5148 6.67645 17.1518 10.4102 13.2669C10.2701 13.0528 10.1254 12.8342 9.95366 12.5655C11.0837 11.4588 12.1912 10.3749 13.3393 9.24992C13.5744 9.41844 13.7869 9.56873 14.0626 9.76912C14.5463 9.01765 15.7035 8.8036 15.5452 7.57847C15.5136 7.3462 15.708 7.09115 15.8029 6.84977C15.8165 6.81789 15.8481 6.79967 15.8752 6.7769C16.6211 6.14384 17.385 4.95971 18.1128 4.99614C19.5864 5.07357 20.8385 6.13474 21.8556 7.30976C21.946 7.41451 22.0183 7.53748 22.0996 7.65589C23.8038 10.2018 23.6998 10.8348 21.286 12.6019C21.1549 12.6976 20.9605 12.8388 20.8385 12.8023C19.4236 12.356 19.0756 13.6677 18.2122 14.2324C19.6135 15.8765 21.8827 18.0353 24.0298 20.1212C24.292 20.3762 24.5496 20.6267 24.8073 20.8772C24.8796 20.9501 24.9565 21.023 25.0288 21.0958C25.309 21.3691 25.5848 21.6424 25.8515 21.9111C25.8967 21.9566 25.9464 22.0022 25.9916 22.0523C26.2764 22.3346 26.5521 22.617 26.8188 22.8903C29.3909 20.3125 31.9629 17.7302 34.5395 15.1569C34.6705 15.0249 34.8016 14.8928 34.9327 14.7653C35.9227 13.777 36.1035 12.5017 35.9407 11.0261C35.5656 7.68778 37.9342 5.20564 41.46 5.3195C40.7865 6.54463 40.1808 7.74243 39.4846 8.87191C39.1411 9.4321 39.1547 9.9012 39.7061 10.4204C40.235 10.9168 40.7322 11.4725 41.3154 11.8778C43.3947 13.3215 44.0772 13.194 45.1395 11.2857C45.5418 10.5616 45.9486 9.83744 46.4459 8.94934C48.3444 13.4491 46.3012 16.9423 42.0567 16.8284C40.5062 16.7874 39.2541 17.2383 38.2416 18.2539C35.5882 20.9182 32.9393 23.578 30.2859 26.2377C31.7143 27.6951 34.8966 30.701 35.5836 31.5527C35.8232 31.8487 36.0673 32.1356 36.3114 32.4134C36.4606 32.5865 36.6188 32.7505 36.7725 32.919C36.8629 33.0146 36.9488 33.1148 37.0392 33.2105C37.2516 33.4291 37.4641 33.6477 37.6811 33.8572C37.7127 33.8891 37.7398 33.9164 37.7715 33.9483C38.0156 34.1851 38.2642 34.4219 38.5173 34.6496C39.7965 35.8247 41.1617 36.9086 42.5946 37.9925C43.4715 38.6575 44.2264 39.5046 44.9587 40.3381C45.5825 41.0394 45.5554 41.7909 44.8231 42.4649Z" fill="white"/>
</g>
<defs>
<clipPath id="clip0">
<rect width="270.023" height="53.5457" fill="white"/>
</clipPath>
</defs>
</svg>
