<svg width="229" height="53" viewBox="0 0 229 53" fill="none" xmlns="http://www.w3.org/2000/svg">
<g clip-path="url(#clip0)">
<path d="M63.5182 36.9202C60.0201 33.7669 59.1508 29.6326 59.1508 26.1867C59.1508 23.7589 59.9791 19.5174 63.1901 16.2899C65.3553 14.1135 68.636 12.4111 74.1927 12.4111C75.6362 12.4111 77.6579 12.5183 79.4213 12.8439C80.7951 13.0954 81.9474 13.3138 83.0997 13.388C83.4975 13.4251 83.5672 13.5694 83.5672 13.7879C83.5672 14.0764 83.4565 14.5133 83.3868 15.8159C83.313 17.0153 83.313 19.0104 83.2761 19.5503C83.2392 20.0944 83.1695 20.3129 82.9521 20.3129C82.702 20.3129 82.6651 20.0573 82.6651 19.5503C82.6651 18.1365 82.0868 16.6485 81.1477 15.853C79.8847 14.7648 77.1084 13.7879 73.9343 13.7879C69.1363 13.7879 66.9014 15.2017 65.6383 16.4342C63.0056 18.9733 62.3945 22.2008 62.3945 25.8981C62.3945 32.823 67.6969 39.1667 75.4188 39.1667C78.1213 39.1667 80.2497 38.8411 81.6932 37.353C82.4477 36.5534 82.9193 34.9582 83.0259 34.3069C83.0997 33.9112 83.1736 33.7628 83.3868 33.7628C83.5672 33.7628 83.6411 34.0184 83.6411 34.3069C83.6411 34.5625 83.2105 37.7158 82.8496 38.9482C82.6322 39.6366 82.5584 39.7108 81.9105 39.9993C80.467 40.5805 77.7235 40.832 75.4188 40.832C70.0098 40.8361 66.3642 39.4923 63.5182 36.9202Z" fill="white"/>
<path d="M100.073 16.5784C107.217 16.5784 112.626 20.9641 112.626 28.1446C112.626 35.0364 107.541 40.7289 99.8928 40.7289C91.199 40.7289 87.4836 34.1667 87.4836 28.6186C87.4877 23.6475 91.3097 16.5784 100.073 16.5784ZM100.795 39.4552C103.645 39.4552 109.382 37.9342 109.382 29.0143C109.382 21.6195 104.912 17.7408 99.8969 17.7408C94.5945 17.7408 90.7725 21.0754 90.7725 27.7859C90.7684 34.9581 95.062 39.4552 100.795 39.4552Z" fill="white"/>
<path d="M119.282 25.9312C119.282 21.1456 119.282 20.2758 119.212 19.2948C119.138 18.2437 118.958 17.7367 117.912 17.5925C117.658 17.5554 117.116 17.5224 116.829 17.5224C116.723 17.5224 116.579 17.3781 116.579 17.2709C116.579 17.0896 116.723 17.0154 117.084 17.0154C118.527 17.0154 120.655 17.0896 120.832 17.0896C121.16 17.0896 123.829 17.0154 124.801 17.0154C126.823 17.0154 129.058 17.1967 130.719 18.355C131.514 18.9362 132.921 20.4201 132.921 22.5594C132.921 24.843 131.982 27.0564 129.025 29.5914C131.625 32.856 133.823 35.6466 135.665 37.5674C137.362 39.3069 138.404 39.5995 139.199 39.7067C139.811 39.8139 140.134 39.8139 140.315 39.8139C140.495 39.8139 140.606 39.9581 140.606 40.0694C140.606 40.2508 140.426 40.325 139.847 40.325H137.863C136.058 40.325 135.267 40.1436 134.471 39.7067C133.102 38.9812 131.945 37.4973 130.145 35.1767C128.812 33.5073 127.401 31.5123 126.716 30.6796C126.573 30.5354 126.499 30.4983 126.282 30.4983L122.242 30.4241C122.099 30.4241 122.025 30.4983 122.025 30.6796V31.4051C122.025 34.377 122.025 36.776 122.169 38.0414C122.275 38.9483 122.46 39.5295 123.432 39.6737C123.862 39.7438 124.547 39.818 124.838 39.818C125.056 39.818 125.093 39.9623 125.093 40.0736C125.093 40.2178 124.949 40.3291 124.584 40.3291C122.853 40.3291 120.832 40.2219 120.688 40.2219C120.651 40.2219 118.523 40.3291 117.547 40.3291C117.223 40.3291 117.043 40.259 117.043 40.0736C117.043 39.9623 117.112 39.818 117.293 39.818C117.58 39.818 117.978 39.7438 118.265 39.6737C118.88 39.5253 118.954 38.9483 119.093 38.0414C119.273 36.776 119.273 34.344 119.273 31.3721V25.9312H119.282ZM122.025 28.5445C122.025 28.7258 122.099 28.833 122.242 28.9402C122.71 29.1957 124.334 29.4142 125.74 29.4142C126.495 29.4142 127.364 29.3771 128.119 28.8701C129.202 28.1446 130.03 26.5123 130.03 24.1587C130.03 20.3129 127.939 18.1036 124.547 18.1036C123.612 18.1036 122.599 18.2107 122.275 18.2849C122.132 18.355 122.021 18.4622 122.021 18.6477V28.5445H122.025Z" fill="white"/>
<path d="M147.393 29.8841C147.393 35.2138 147.541 37.5345 148.189 38.1857C148.767 38.7669 149.702 39.0225 152.515 39.0225C154.426 39.0225 156.013 38.9854 156.882 37.9343C157.35 37.3531 157.711 36.4463 157.821 35.7579C157.854 35.4653 157.928 35.288 158.145 35.288C158.326 35.288 158.359 35.4323 158.359 35.828C158.359 36.2278 158.108 38.4042 157.821 39.4553C157.567 40.2921 157.461 40.4363 155.55 40.4363C152.954 40.4363 151.076 40.3621 149.562 40.3292C148.049 40.2591 146.93 40.222 145.88 40.222C145.736 40.222 145.125 40.2591 144.403 40.2591C143.682 40.2921 142.886 40.3292 142.349 40.3292C141.951 40.3292 141.771 40.2591 141.771 40.0406C141.771 39.9293 141.844 39.8222 142.058 39.8222C142.382 39.8222 142.816 39.748 143.14 39.6779C143.862 39.5295 144.043 38.734 144.186 37.6829C144.367 36.1577 144.367 33.2971 144.367 29.8141V23.4333C144.367 17.778 144.367 16.7599 144.293 15.6016C144.219 14.3691 143.932 13.7921 142.743 13.5365C142.456 13.4623 141.84 13.4293 141.516 13.4293C141.373 13.4293 141.229 13.3551 141.229 13.2109C141.229 12.9965 141.41 12.9182 141.808 12.9182C143.432 12.9182 145.703 13.0295 145.884 13.0295C146.064 13.0295 148.697 12.9182 149.78 12.9182C150.177 12.9182 150.358 12.9924 150.358 13.2109C150.358 13.3551 150.21 13.4293 150.067 13.4293C149.812 13.4293 149.308 13.4664 148.873 13.5365C147.828 13.7179 147.541 14.332 147.467 15.6016C147.393 16.7599 147.393 17.778 147.393 23.4333V29.8841Z" fill="white"/>
<path d="M167.787 31.3721C167.787 34.344 167.787 36.776 167.93 38.0414C168.037 38.9482 168.147 39.5294 169.082 39.6737C169.554 39.7438 170.239 39.818 170.526 39.818C170.706 39.818 170.78 39.9622 170.78 40.0735C170.78 40.2178 170.637 40.3291 170.276 40.3291C168.508 40.3291 166.45 40.2219 166.306 40.2219C166.126 40.2219 164.141 40.3291 163.169 40.3291C162.845 40.3291 162.665 40.259 162.665 40.0735C162.665 39.9622 162.738 39.818 162.919 39.818C163.206 39.818 163.604 39.7438 163.891 39.6737C164.506 39.5253 164.613 38.9482 164.719 38.0414C164.867 36.776 164.9 34.344 164.9 31.3721V25.9311C164.9 21.1455 164.9 20.2758 164.826 19.2948C164.752 18.2437 164.502 17.7738 163.813 17.6295C163.456 17.5553 163.058 17.5182 162.841 17.5182C162.697 17.5182 162.587 17.374 162.587 17.2668C162.587 17.0854 162.73 17.0112 163.091 17.0112C164.137 17.0112 166.122 17.0854 166.302 17.0854C166.446 17.0854 168.504 17.0112 169.476 17.0112C169.837 17.0112 169.981 17.0854 169.981 17.2668C169.981 17.374 169.837 17.5182 169.726 17.5182C169.509 17.5182 169.292 17.5182 168.931 17.5883C168.065 17.7697 167.885 18.2066 167.811 19.2907C167.774 20.2717 167.774 21.1414 167.774 25.927V31.3721H167.787Z" fill="white"/>
<path d="M178.219 25.9311C178.219 21.1455 178.219 20.2758 178.149 19.2948C178.076 18.2437 177.895 17.7367 176.849 17.5924C176.595 17.5553 176.054 17.5224 175.767 17.5224C175.66 17.5224 175.513 17.3781 175.513 17.2709C175.513 17.0896 175.656 17.0154 176.017 17.0154C177.456 17.0154 179.441 17.0896 179.626 17.0896C180.237 17.0896 187.13 17.1266 187.848 17.0896C188.463 17.0525 189.004 17.0525 189.291 16.9453C189.472 16.9082 189.62 16.7639 189.726 16.7639C189.87 16.7639 189.943 16.9082 189.943 17.0566C189.943 17.275 189.8 17.6378 189.689 18.5075C189.656 18.8002 189.62 20.1769 189.546 20.5396C189.509 20.6839 189.402 20.8653 189.255 20.8653C189.111 20.8653 189 20.7169 189 20.5025C189 20.247 188.894 19.74 188.713 19.3401C188.533 18.9444 187.774 18.4333 186.548 18.4333L181.352 18.3632C181.172 18.3632 181.098 18.4333 181.098 18.6889V27.0976C181.098 27.279 181.098 27.3903 181.315 27.3903L185.642 27.3532C186.183 27.3532 186.65 27.3532 187.085 27.3161C187.84 27.246 188.274 27.1347 188.566 26.772C188.709 26.5906 188.853 26.4464 188.963 26.4464C189.107 26.4464 189.144 26.5535 189.144 26.7019C189.144 26.8833 188.926 27.3903 188.853 28.4043C188.779 29.0185 188.742 30.2551 188.742 30.4735C188.742 30.7621 188.668 31.0877 188.455 31.0877C188.274 31.0877 188.242 30.9434 188.242 30.7991C188.205 30.4735 188.168 30.0366 188.024 29.6739C187.881 29.2369 187.376 28.8371 186.4 28.6928C185.605 28.5857 181.857 28.6228 181.315 28.6228C181.135 28.6228 181.098 28.6928 181.098 28.9113V31.3803C181.098 34.4265 181.098 36.8543 181.241 38.0497C181.348 38.9565 181.533 39.5377 182.398 39.6819C182.865 39.752 183.55 39.8262 183.841 39.8262C184.022 39.8262 184.096 39.9705 184.096 40.0818C184.096 40.226 183.952 40.3373 183.591 40.3373C181.824 40.3373 179.769 40.2302 179.626 40.2302C179.445 40.2302 177.46 40.3373 176.484 40.3373C176.161 40.3373 175.98 40.2673 175.98 40.0818C175.98 39.9705 176.054 39.8262 176.234 39.8262C176.525 39.8262 176.919 39.719 177.206 39.6819C177.817 39.5707 177.891 38.9565 178.035 38.0497C178.215 36.7842 178.215 34.3523 178.215 31.3803V25.9311H178.219Z" fill="white"/>
<path d="M197.53 25.9311C197.53 21.1455 197.53 20.2758 197.456 19.2948C197.387 18.2437 197.206 17.7367 196.156 17.5924C195.902 17.5553 195.361 17.5224 195.074 17.5224C194.963 17.5224 194.819 17.3781 194.819 17.2709C194.819 17.0896 194.963 17.0154 195.324 17.0154C196.767 17.0154 198.822 17.0896 199.002 17.0896C199.22 17.0896 205.859 17.1266 206.577 17.0896C207.192 17.0525 207.766 16.9453 208.02 16.9082C208.168 16.8711 208.311 16.7639 208.455 16.7639C208.561 16.7639 208.598 16.9082 208.598 17.0566C208.598 17.275 208.418 17.6378 208.344 18.5075C208.311 18.8002 208.237 20.1769 208.164 20.5396C208.127 20.6839 208.016 20.8653 207.872 20.8653C207.692 20.8653 207.618 20.7169 207.618 20.4654C207.618 20.247 207.585 19.74 207.438 19.3772C207.22 18.8702 206.896 18.6518 205.166 18.4333C204.629 18.3632 200.946 18.322 200.589 18.322C200.442 18.322 200.405 18.4333 200.405 18.6476V27.0234C200.405 27.2419 200.405 27.3491 200.589 27.3491C200.987 27.3491 205.166 27.3491 205.892 27.2749C206.65 27.2007 207.118 27.1677 207.442 26.838C207.659 26.6236 207.803 26.4381 207.913 26.4381C208.02 26.4381 208.094 26.5123 208.094 26.6937C208.094 26.8751 207.913 27.3821 207.84 28.3961C207.766 29.0102 207.696 30.1726 207.696 30.3911C207.696 30.6466 207.622 30.9723 207.405 30.9723C207.261 30.9723 207.188 30.8651 207.188 30.6796C207.188 30.3911 207.188 30.0654 207.044 29.6656C206.937 29.2287 206.65 28.8701 205.42 28.7217C204.555 28.6145 201.168 28.5733 200.626 28.5733C200.446 28.5733 200.409 28.6805 200.409 28.7918V31.3639C200.409 32.415 200.376 36.0052 200.409 36.6193C200.483 38.6844 201.057 39.0884 204.198 39.0884C205.026 39.0884 206.544 39.0884 207.372 38.7628C208.205 38.4 208.635 37.8559 208.816 36.6235C208.885 36.2607 208.959 36.1536 209.14 36.1536C209.32 36.1536 209.357 36.405 209.357 36.6235C209.357 36.8419 209.107 38.9441 208.922 39.5954C208.709 40.395 208.381 40.395 207.159 40.395C204.776 40.395 202.939 40.325 201.639 40.2879C200.306 40.2137 199.478 40.2137 199.006 40.2137C198.933 40.2137 198.322 40.2137 197.637 40.2508C197.022 40.2838 196.304 40.3208 195.795 40.3208C195.471 40.3208 195.291 40.2508 195.291 40.0653C195.291 39.954 195.361 39.8097 195.545 39.8097C195.836 39.8097 196.23 39.7026 196.517 39.6655C197.132 39.5542 197.206 38.94 197.35 38.0332C197.53 36.7677 197.53 34.3358 197.53 31.3639V25.9311Z" fill="white"/>
<path d="M31.1583 30.2468C31.2034 30.2839 31.2444 30.3128 31.2731 30.354C33.9059 33.0827 33.832 37.4437 31.1214 40.0859C28.4066 42.7363 24.0679 42.6663 21.4475 39.9293C20.9472 39.414 20.5494 38.8493 20.25 38.2475C18.9664 38.5031 17.0882 38.4948 16.0466 38.3052C16.4772 40.0859 17.2441 41.339 18.6015 42.7528C19.7784 43.9812 21.1973 44.8468 22.7105 45.3826C21.1645 47.1674 21.2055 49.8673 22.8664 51.5944C24.6256 53.4245 27.5372 53.4699 29.3457 51.6974C31.1009 49.9992 31.2075 47.2292 29.6328 45.395C31.0476 44.9045 32.3926 44.1089 33.545 43.0001C37.7361 38.9153 37.8386 32.1965 33.7869 27.9798C33.7459 27.9385 33.6967 27.9097 33.6516 27.8643C33.6434 27.8479 32.5239 26.7968 33.3604 25.9806C34.7875 24.5792 35.3371 26.4134 36.5386 25.2304C38.4291 23.4003 36.5632 22.2709 36.5632 22.2709C36.108 21.7927 33.6762 21.0054 31.2526 23.3755C30.0429 24.5421 28.3902 27.3738 31.1583 30.2468Z" fill="white"/>
<path d="M30.6088 21.5453C30.6498 21.5123 30.6744 21.4711 30.7154 21.434C33.4261 18.7836 37.7607 18.8413 40.3975 21.5659C43.0344 24.2905 42.9811 28.6515 40.2622 31.2978C39.766 31.7965 38.9663 32.3613 38.3799 32.6745C38.7285 34.2573 38.6957 35.4239 38.2774 36.9449C40.0448 36.5121 41.6729 35.5228 43.0877 34.1461C44.3097 32.9507 45.1709 31.5369 45.6917 30.0241C47.4715 31.5657 50.1617 31.5121 51.8717 29.8386C53.6925 28.0538 53.7294 25.1478 51.9578 23.3177C50.256 21.5659 47.5125 21.4752 45.6876 23.058C45.2037 21.6359 44.4041 20.2798 43.2927 19.1298C39.2165 14.9295 32.5403 14.843 28.3492 18.932C28.3123 18.9732 28.2795 19.0185 28.2344 19.0639C28.2221 19.068 27.1764 20.2015 26.3644 19.373C24.9742 17.9344 26.7909 17.378 25.6139 16.1702C23.785 14.2824 22.6654 16.1538 22.6654 16.1538C22.1979 16.6113 21.4188 19.0515 23.7727 21.4917C24.9332 22.6829 27.7628 24.3441 30.6088 21.5453Z" fill="white"/>
<path d="M22.6409 31.1868C22.6122 31.2197 22.5753 31.2527 22.5424 31.2981C19.8318 33.9485 15.4972 33.8908 12.8644 31.1661C10.2194 28.4457 10.2809 24.0846 12.9957 21.426C13.5001 20.9314 14.0619 20.5398 14.6565 20.2306C14.2587 19.1589 14.2956 17.0815 14.4925 16.0427C12.7127 16.4797 11.5809 17.2134 10.1743 18.586C8.95221 19.7772 8.08693 21.1993 7.57022 22.712C5.79455 21.1704 3.10029 21.2158 1.38613 22.9016C-0.426447 24.6782 -0.467456 27.5924 1.30411 29.4102C3.00597 31.1703 5.75354 31.2692 7.57842 29.6781C8.06643 31.1043 8.85379 32.4522 9.97332 33.6022C14.0414 37.8066 20.7299 37.889 24.9127 33.8001C24.9538 33.7547 24.9948 33.7218 25.0358 33.6764C25.044 33.6682 26.0938 32.5305 26.9058 33.3714C28.2959 34.8058 26.4834 35.3582 27.6562 36.57C29.4893 38.462 30.5965 36.5865 30.5965 36.5865C31.0763 36.129 31.8514 33.6847 29.4934 31.2445C28.3288 30.0409 25.4992 28.388 22.6409 31.1868Z" fill="white"/>
<path d="M21.4967 22.7653C21.4557 22.7282 21.427 22.6952 21.3901 22.6581C18.7573 19.9335 18.8106 15.5766 21.5172 12.918C24.2237 10.2758 28.5665 10.3253 31.2075 13.054C31.6955 13.561 32.0974 14.1298 32.4009 14.7275C33.91 14.3895 35.538 14.3607 36.5673 14.5462C36.1367 12.7696 35.3986 11.6278 34.0371 10.214C32.8437 8.99801 31.433 8.12003 29.928 7.60479C31.4741 5.81174 31.4125 3.10775 29.7394 1.38889C27.9842 -0.437128 25.0767 -0.478348 23.2682 1.30233C21.5131 3.0047 21.4229 5.77052 22.9976 7.60479C21.5746 8.09942 20.2459 8.89084 19.0977 10.0161C14.923 14.1051 14.8287 20.828 18.8926 25.0324C18.9336 25.0777 18.987 25.1066 19.028 25.1478C19.0321 25.1684 20.1557 26.2195 19.3273 27.0274C17.9002 28.4289 17.3507 26.607 16.1451 27.7858C14.2669 29.6242 16.1287 30.7413 16.1287 30.7413C16.5921 31.2236 19.0198 32.0026 21.4475 29.6284C22.6285 28.4701 24.2812 25.6342 21.4967 22.7653Z" fill="white"/>
<path d="M214.454 37.6415C214.454 38.7668 214.454 39.3727 214.639 39.5293C214.786 39.6612 215.016 39.7231 215.697 39.7231C216.16 39.7231 216.501 39.7148 216.718 39.4758C216.825 39.3603 216.927 39.1171 216.944 38.9481C216.952 38.8698 216.968 38.8162 217.038 38.8162C217.099 38.8162 217.108 38.8616 217.108 38.9646C217.108 39.0594 217.046 39.7189 216.976 39.9745C216.923 40.1682 216.882 40.2095 216.427 40.2095C215.799 40.2095 215.344 40.193 214.95 40.1847C214.557 40.1682 214.245 40.16 213.884 40.16C213.79 40.16 213.597 40.16 213.388 40.1682C213.187 40.1682 212.962 40.1847 212.785 40.1847C212.67 40.1847 212.609 40.16 212.609 40.0982C212.609 40.0528 212.642 40.0281 212.748 40.0281C212.88 40.0281 212.982 40.0116 213.064 39.9951C213.24 39.958 213.281 39.7684 213.318 39.5129C213.363 39.146 213.363 38.4494 213.363 37.6415V36.0958C213.363 34.7602 213.363 34.5171 213.347 34.2368C213.331 33.94 213.261 33.7998 212.97 33.738C212.9 33.7215 212.793 33.7133 212.683 33.7133C212.588 33.7133 212.535 33.6968 212.535 33.635C212.535 33.5731 212.597 33.5566 212.728 33.5566C213.138 33.5566 213.687 33.5814 213.925 33.5814C214.134 33.5814 214.774 33.5566 215.115 33.5566C215.238 33.5566 215.299 33.5731 215.299 33.635C215.299 33.6968 215.246 33.7133 215.143 33.7133C215.049 33.7133 214.909 33.7215 214.803 33.738C214.569 33.7833 214.499 33.9317 214.479 34.2368C214.462 34.5171 214.462 34.7644 214.462 36.0958V37.6415H214.454Z" fill="white"/>
<path d="M219.736 37.6415C219.736 38.7668 219.736 39.3727 219.921 39.5293C220.068 39.6612 220.298 39.7231 220.979 39.7231C221.442 39.7231 221.783 39.7148 222 39.4758C222.107 39.3603 222.209 39.1171 222.225 38.9481C222.234 38.8698 222.25 38.8162 222.32 38.8162C222.381 38.8162 222.389 38.8616 222.389 38.9646C222.389 39.0594 222.328 39.7189 222.258 39.9745C222.205 40.1682 222.164 40.2095 221.709 40.2095C221.081 40.2095 220.626 40.193 220.232 40.1847C219.839 40.1682 219.527 40.16 219.166 40.16C219.072 40.16 218.879 40.16 218.67 40.1682C218.469 40.1682 218.244 40.1847 218.067 40.1847C217.952 40.1847 217.891 40.16 217.891 40.0982C217.891 40.0528 217.924 40.0281 218.03 40.0281C218.161 40.0281 218.264 40.0116 218.346 39.9951C218.522 39.958 218.563 39.7684 218.6 39.5129C218.645 39.146 218.645 38.4494 218.645 37.6415V36.0958C218.645 34.7602 218.645 34.5171 218.629 34.2368C218.613 33.94 218.543 33.7998 218.252 33.738C218.182 33.7215 218.075 33.7133 217.965 33.7133C217.87 33.7133 217.817 33.6968 217.817 33.635C217.817 33.5731 217.879 33.5566 218.01 33.5566C218.42 33.5566 218.969 33.5814 219.207 33.5814C219.416 33.5814 220.056 33.5566 220.396 33.5566C220.519 33.5566 220.581 33.5731 220.581 33.635C220.581 33.6968 220.528 33.7133 220.425 33.7133C220.331 33.7133 220.191 33.7215 220.085 33.738C219.851 33.7833 219.781 33.9317 219.761 34.2368C219.744 34.5171 219.744 34.7644 219.744 36.0958V37.6415H219.736Z" fill="white"/>
<path d="M224.013 39.3522C223.156 38.5979 222.931 37.6127 222.931 36.7636C222.931 36.1659 223.115 35.1313 223.952 34.3605C224.579 33.7793 225.412 33.429 226.712 33.429C227.253 33.429 227.577 33.4661 227.979 33.5155C228.311 33.5609 228.59 33.6392 228.852 33.6639C228.947 33.6721 228.984 33.7175 228.984 33.767C228.984 33.837 228.959 33.9442 228.939 34.2492C228.922 34.5378 228.93 35.02 228.914 35.1973C228.906 35.3292 228.889 35.3992 228.807 35.3992C228.738 35.3992 228.721 35.3292 228.721 35.2055C228.713 34.9335 228.598 34.6243 228.381 34.3976C228.094 34.0926 227.413 33.8535 226.609 33.8535C225.851 33.8535 225.35 34.0472 224.969 34.3976C224.333 34.9871 224.165 35.8197 224.165 36.6729C224.165 38.7628 225.744 39.7974 226.917 39.7974C227.696 39.7974 228.168 39.7108 228.516 39.3069C228.664 39.142 228.779 38.8864 228.811 38.7257C228.836 38.5855 228.857 38.5484 228.926 38.5484C228.988 38.5484 229.004 38.6102 229.004 38.6803C229.004 38.7875 228.898 39.55 228.811 39.8468C228.766 39.9952 228.733 40.0406 228.586 40.1024C228.237 40.2425 227.573 40.3044 227.015 40.3044C225.81 40.3085 224.809 40.0447 224.013 39.3522Z" fill="white"/>
</g>
<defs>
<clipPath id="clip0">
<rect width="229" height="53" fill="white"/>
</clipPath>
</defs>
</svg>
