<svg width="147" height="147" viewBox="0 0 147 147" fill="none" xmlns="http://www.w3.org/2000/svg">
<path d="M147 73.5C147 114.093 114.093 147 73.5 147C32.9071 147 0 114.093 0 73.5C0 32.9071 32.9071 0 73.5 0C114.093 0 147 32.9071 147 73.5Z" fill="url(#paint0_linear)"/>
<path d="M73.3879 80.2317C61.6156 80.2317 51.9503 69.2085 51.2873 55.3706C51.2431 54.5453 51.9356 53.8674 52.7459 53.8674C53.5415 53.8674 54.1603 54.5011 54.2045 55.2822C54.8086 67.5432 63.1774 77.2991 73.3732 77.2991C83.5836 77.2991 91.9524 67.5432 92.5565 55.2822C92.6007 54.4864 93.2195 53.8674 94.0152 53.8674C94.8402 53.8674 95.518 54.5453 95.4738 55.3706C94.8402 69.2232 85.1749 80.2317 73.3879 80.2317Z" fill="white" stroke="white"/>
<path d="M78.3827 25.897C77.5723 25.897 76.924 25.2485 76.924 24.438V14.9179H69.8517V24.438C69.8517 25.2485 69.2034 25.897 68.3931 25.897C67.5827 25.897 66.9344 25.2485 66.9344 24.438V13.2379C66.9344 12.56 67.4943 12 68.172 12H78.6037C79.2815 12 79.8413 12.56 79.8413 13.2379V24.438C79.8413 25.2485 79.193 25.897 78.3827 25.897Z" fill="white" stroke="white"/>
<path d="M36.0232 81.75C31.8093 81.8089 33.6362 78.4635 34.8444 78.7141C36.4062 79.0383 38.5869 78.6256 39.5299 77.7709C39.9277 77.4172 39.9572 77.1224 39.9277 76.9014L42.8302 76.5771C42.9776 77.8446 42.4913 79.0383 41.4746 79.952C40.0749 81.2047 37.9091 81.75 36.0232 81.75Z" fill="white" stroke="white"/>
<path d="M44.4065 85.8762H33.7836C32.3102 85.8762 28.3763 85.8762 27.0061 82.2362C26.4168 80.6152 26.5494 79.0089 27.3892 77.5499C28.9215 74.8973 32.487 73.3794 34.5203 73.0257C36.7008 72.6278 39.456 72.3478 41.2535 73.6889C42.1522 74.352 42.6975 75.3541 42.8301 76.5773L44.4065 85.8762ZM37.6438 75.6194C36.9366 75.6194 36.0525 75.7078 35.0211 75.8994C33.533 76.1647 30.8663 77.3436 29.9086 79.0089C29.4961 79.7162 29.4519 80.4236 29.7466 81.2194C30.218 82.4868 31.323 82.9583 33.7836 82.9583H40.9589L39.9421 76.9899C39.8685 76.371 39.6623 76.1647 39.5002 76.032C39.1466 75.752 38.5131 75.6194 37.6438 75.6194Z" fill="white" stroke="white"/>
<path d="M111.15 80.7478C110.915 81.3668 110.296 81.75 109.633 81.6763C108.056 81.4994 106.436 80.9542 105.301 79.9373C104.284 79.0236 103.798 77.8299 103.946 76.5625L106.848 76.8867C106.819 77.1078 106.848 77.4025 107.246 77.7562C107.835 78.272 108.881 78.6404 109.957 78.7731C110.915 78.891 111.504 79.8636 111.15 80.7478Z" fill="white" stroke="white"/>
<path d="M113.007 85.8762H102.384L103.975 76.5036C104.108 75.3689 104.653 74.3668 105.551 73.6889C107.349 72.3478 110.104 72.6278 112.285 73.0257C114.318 73.3942 117.884 74.8973 119.416 77.5499C120.256 79.0089 120.388 80.6152 119.799 82.2215C118.414 85.8762 114.48 85.8762 113.007 85.8762ZM105.831 82.9583H113.007C115.482 82.9583 116.572 82.4868 117.044 81.2047C117.339 80.4089 117.28 79.7162 116.867 78.9941C115.909 77.3289 113.243 76.1499 111.754 75.8847C109.441 75.472 107.938 75.5162 107.275 76.0173C107.113 76.1352 106.907 76.3562 106.848 76.8868L105.831 82.9583Z" fill="white" stroke="white"/>
<path d="M102.414 127.11H44.3627C43.6407 127.11 42.9777 126.653 42.742 125.96L42.1086 124.192C41.8286 123.44 42.2264 122.6 42.9925 122.32C43.744 122.04 44.5838 122.438 44.8638 123.205L45.2174 124.192H101.603L101.957 123.205C102.237 122.453 103.062 122.055 103.828 122.32C104.58 122.6 104.977 123.426 104.712 124.192L104.079 125.96C103.799 126.653 103.15 127.11 102.414 127.11ZM31.6329 95.0866L27.0065 82.2213L29.7469 81.2192C30.2184 82.5013 31.3234 82.9729 33.784 82.9729H113.007C115.483 82.9729 116.573 82.5013 117.044 81.2192L119.785 82.2213L115.158 95.0866C114.878 95.8382 114.053 96.2361 113.287 95.9708C112.536 95.6908 112.138 94.8656 112.403 94.0993L115.424 85.6992C114.481 85.8761 113.582 85.8761 112.993 85.8761H33.7692C33.2093 85.8761 32.3105 85.8761 31.3381 85.6845L34.3586 94.0993C34.6385 94.8508 34.2408 95.6908 33.4746 95.9708C32.7379 96.2361 31.8981 95.8382 31.6329 95.0866Z" fill="white" stroke="white"/>
<path d="M104.83 119.697C102.413 119.697 99.8054 119.049 98.5972 118.356C93.9119 115.659 93.8087 107.274 95.7978 102.455C97.3448 98.6973 104.285 100.156 105.669 100.48C108.336 101.114 109.485 100.908 111.902 99.3899C111.902 99.3899 113.567 98.6825 114.038 100.083C115.069 103.221 112.211 116.853 108.528 118.96C107.555 119.476 106.215 119.697 104.83 119.697ZM101.22 102.838C99.776 102.838 98.6857 103.074 98.4942 103.546C96.9619 107.245 96.947 114.038 100.056 115.807C101.308 116.529 105.566 117.251 107.069 116.381C108.984 115.291 111.754 107.156 111.607 102.853C109.471 103.855 107.673 103.929 104.992 103.295C103.695 102.986 102.354 102.838 101.22 102.838Z" fill="white" stroke="white"/>
<path d="M41.7986 119.815C44.2149 119.815 46.823 119.167 48.0311 118.474C52.7165 115.777 52.8195 107.392 50.8304 102.573C49.2834 98.8152 42.3438 100.274 40.9588 100.598C38.292 101.232 37.1428 101.026 34.7265 99.5078C34.7265 99.5078 33.0467 98.8004 32.5899 100.2C31.5586 103.339 34.4169 116.971 38.1004 119.079C39.0875 119.609 40.4136 119.815 41.7986 119.815ZM45.4085 102.971C46.8524 102.971 47.9427 103.207 48.1342 103.678C49.6665 107.377 49.6812 114.156 46.5723 115.94C45.32 116.662 41.062 117.384 39.5592 116.514C37.6438 115.424 34.8737 107.289 35.0211 102.986C37.1575 103.988 38.955 104.062 41.6365 103.428C42.9331 103.118 44.2887 102.971 45.4085 102.971Z" fill="white" stroke="white"/>
<path d="M104.063 49.6676C104.049 44.8191 101.971 41.4886 98.1259 39.9707C98.1406 39.5433 98.1552 39.116 98.1552 38.6886C98.1552 38.1728 98.1259 37.657 98.0964 37.1412C98.0817 36.9791 98.0669 36.817 98.0522 36.6402C98.0227 36.2865 97.9785 35.9328 97.9196 35.5791C97.8901 35.3875 97.8606 35.1959 97.8311 35.0191C97.7722 34.6949 97.7132 34.3559 97.6396 34.0317C97.5954 33.8402 97.5512 33.6633 97.507 33.4717C97.4186 33.1328 97.3301 32.7938 97.227 32.4549C97.1828 32.2928 97.1386 32.1307 97.0797 31.9833C96.9176 31.497 96.7556 31.0107 96.564 30.5391V30.5244C96.3725 30.038 96.1514 29.5665 95.9304 29.0949C95.8567 28.9475 95.7832 28.8001 95.7096 28.6528C95.5475 28.3286 95.3705 28.0043 95.1937 27.6949C95.1053 27.5328 95.0023 27.3559 94.8991 27.1938C94.7223 26.8991 94.5455 26.6043 94.354 26.3243C94.2508 26.1622 94.1478 26.0001 94.0299 25.838C93.8236 25.5286 93.6025 25.2338 93.3815 24.9391C93.2784 24.8064 93.19 24.6738 93.0722 24.5412C92.748 24.1286 92.3945 23.7159 92.0409 23.3033C91.6873 22.9054 91.3042 22.5075 90.9211 22.1243C90.8032 22.0064 90.6854 21.9033 90.5675 21.7854C90.2875 21.5201 90.0075 21.2549 89.7128 21.0043C89.5655 20.8717 89.4182 20.7538 89.2562 20.6212C88.9762 20.3854 88.6962 20.1643 88.4015 19.9433C88.2394 19.8254 88.0774 19.6927 87.9153 19.5749C87.8269 19.5012 87.7237 19.4275 87.6353 19.3538C87.5322 19.2801 87.4143 19.2212 87.3112 19.1475C87.2965 19.1327 87.2817 19.1327 87.2817 19.118C85.3811 17.7917 83.2594 16.8191 81.0641 16.0527C81.0199 16.038 80.9905 16.0233 80.9463 16.0085L79.0751 15.3601V18.3959L79.7675 18.6464C82.508 19.6191 85.1159 20.9896 87.3407 22.8612C87.4586 22.9643 87.5764 23.0528 87.6796 23.1559C88.0921 23.5243 88.5048 23.9075 88.9026 24.3054C88.9762 24.3791 89.035 24.438 89.1087 24.497C89.5507 24.9538 89.9927 25.4401 90.4053 25.9412C90.5084 26.0591 90.6117 26.1917 90.7148 26.3243C91.0537 26.7517 91.3778 27.1791 91.6725 27.6359C91.7462 27.7538 91.8345 27.8717 91.9229 27.9896C92.2765 28.5349 92.6155 29.1096 92.9396 29.6844C93.0133 29.817 93.0722 29.9349 93.1311 30.0675C93.3816 30.5538 93.6026 31.0549 93.8236 31.5559C93.8825 31.718 93.9562 31.8654 94.0151 32.0275C94.2509 32.6465 94.4718 33.2949 94.6486 33.9433C94.6781 34.0465 94.6929 34.1349 94.7223 34.238C94.8697 34.8128 94.9728 35.3875 95.0612 35.9917C95.0906 36.1686 95.1202 36.3602 95.1349 36.5517C95.2233 37.2444 95.2675 37.9517 95.2675 38.6738C95.2675 39.396 95.2381 40.1181 95.1644 40.8254L95.0464 42.0339L96.2252 42.3581C99.1425 43.1833 100.748 45.1581 101.117 48.3707H45.7474C46.101 45.1581 47.7069 43.1833 50.6389 42.3581L51.8177 42.0339L51.6998 40.8254C51.6262 40.1181 51.5966 39.396 51.5966 38.6738C51.5966 37.9517 51.6555 37.2444 51.7292 36.5517C51.7439 36.3602 51.7734 36.1833 51.8029 35.9917C51.8913 35.4023 52.0091 34.8128 52.1418 34.238C52.1712 34.1349 52.186 34.0465 52.2155 33.9433C52.3923 33.2949 52.5985 32.6465 52.8489 32.0275C52.9079 31.8654 52.9816 31.718 53.0405 31.5559C53.2468 31.0549 53.4826 30.5538 53.7184 30.0675C53.7773 29.9349 53.8362 29.8022 53.9099 29.6844C54.2193 29.1096 54.5581 28.5349 54.9117 27.9896C54.9854 27.8717 55.0738 27.7538 55.1622 27.6359C55.4717 27.1938 55.7958 26.7517 56.12 26.3391C56.2231 26.2064 56.3262 26.0738 56.4293 25.9559C56.8419 25.4549 57.2692 24.9686 57.7259 24.5117C57.7848 24.438 57.8585 24.3791 57.9322 24.3201C58.33 23.9222 58.7425 23.5391 59.155 23.1707C59.2729 23.0675 59.376 22.9643 59.4939 22.8759C61.7187 21.0043 64.3118 19.6191 67.067 18.6612L67.7595 18.4254V15.3601L65.8885 16.0085C65.8443 16.0233 65.8147 16.038 65.7705 16.0527C63.5751 16.8043 61.4535 17.7917 59.5529 19.118C59.5381 19.1327 59.5234 19.1327 59.5086 19.1475C59.4055 19.2212 59.2877 19.2801 59.1845 19.3538C59.0814 19.4275 58.9929 19.5012 58.9045 19.5749C58.7424 19.6927 58.5804 19.8254 58.4183 19.9433C58.1384 20.1643 57.8438 20.3854 57.5786 20.6212C57.4313 20.7538 57.2691 20.8717 57.1218 21.0043C56.8271 21.2549 56.562 21.5201 56.282 21.7706C56.1642 21.8885 56.0315 21.9917 55.9137 22.1096C55.5306 22.4928 55.1475 22.8907 54.7939 23.2885C54.7939 23.2885 54.7939 23.2885 54.7792 23.3033C54.4255 23.7012 54.0866 24.1138 53.7624 24.5264C53.6593 24.6591 53.5562 24.7917 53.4531 24.9243C53.2321 25.2191 53.0111 25.5138 52.8049 25.8086C52.687 25.9707 52.5837 26.1328 52.4806 26.2949C52.2891 26.5896 52.1123 26.8696 51.9355 27.1643C51.8323 27.3265 51.744 27.5033 51.6409 27.6654C51.464 27.9749 51.2873 28.2991 51.1252 28.6233C51.0515 28.7707 50.9778 28.918 50.9042 29.0654C50.6832 29.537 50.4621 30.0086 50.2705 30.4949V30.5096C50.079 30.9812 49.9022 31.4675 49.7549 31.9538C49.7107 32.1159 49.6665 32.278 49.6076 32.4254C49.5045 32.7644 49.4012 33.1033 49.3276 33.4423C49.2834 33.6338 49.2392 33.8107 49.195 34.0023C49.1213 34.3265 49.0624 34.6507 49.0035 34.9896C48.974 35.1812 48.9446 35.3728 48.9151 35.5644C48.8562 35.9181 48.8266 36.2717 48.7824 36.6107C48.7677 36.7728 48.7383 36.9349 48.7383 37.1117C48.6941 37.6275 48.6794 38.1433 48.6794 38.6591C48.6794 39.0865 48.6941 39.5138 48.7089 39.9412C44.8191 41.4886 42.7564 44.8781 42.7564 49.8444C42.7269 54.1918 104.078 54.0002 104.063 49.6676Z" fill="white" stroke="white"/>
<defs>
<linearGradient id="paint0_linear" x1="73.5" y1="0" x2="73.5" y2="147" gradientUnits="userSpaceOnUse">
<stop stop-color="#F09028"/>
<stop offset="1" stop-color="#C46627"/>
</linearGradient>
</defs>
</svg>
