<svg width="184" height="184" viewBox="0 0 184 184" fill="none" xmlns="http://www.w3.org/2000/svg">
<path d="M102.518 88.2518C96.4454 92.3678 96.243 96.5465 90.186 100.647C93.9697 104.356 103.997 115.029 107.641 118.191C117.03 126.329 125.454 136.142 132.648 146.377C134.532 149.053 137.023 151.369 139.483 153.576C141.912 155.751 144.481 155.689 146.848 153.263C149.293 150.743 151.8 148.286 154.384 145.923C156.907 143.607 157.016 141.04 154.851 138.567C152.329 135.703 149.729 132.792 146.708 130.508C137.77 123.747 129.565 117.048 122.542 108.378C119.833 105.013 105.694 91.8201 102.518 88.2518Z" fill="white"/>
<path d="M159.974 30.7058C166.514 46.1683 159.476 58.172 144.855 57.7807C139.514 57.6399 135.201 59.1893 131.713 62.6793C109.758 84.6679 87.8192 106.656 65.7866 128.551C62.1119 132.198 61.4579 136.799 61.9873 142.167C63.1084 153.388 54.7625 161.933 43.0221 161.307C45.2798 157.222 47.2729 153.232 49.6241 149.491C51.0566 147.238 50.7919 145.391 48.5964 143.372C47.0082 141.901 45.5134 140.258 43.7695 139.037C36.3734 133.841 34.0377 134.232 30.2385 141.009C28.8527 143.482 27.4513 145.954 25.9098 148.662C18.9964 134.138 26.2835 121.227 40.5463 121.9C45.8715 122.15 50.2936 120.679 53.7971 117.189C75.9699 94.997 98.1271 72.8206 120.315 50.6755C123.725 47.2794 124.348 42.8974 123.788 37.8267C122.495 26.355 130.654 17.8257 142.8 18.2169C140.48 22.4268 138.393 26.5428 135.995 30.4241C134.812 32.3491 134.859 33.9611 136.758 35.7452C138.58 37.4511 140.293 39.3604 142.301 40.7533C149.464 45.7144 151.815 45.2762 155.474 38.7187C156.86 36.246 158.261 33.7576 159.974 30.7058Z" fill="white"/>
<path d="M86.5424 89.1439C85.5148 89.8638 84.5182 94.4649 84.02 94.8092C74.7554 86.5616 59.9008 68.8298 50.8542 60.77C40.6553 69.581 34.1312 79.7381 39.3318 94.4493C26.4548 83.4159 18.9964 63.0862 35.8595 45.5892C35.3768 44.8536 34.8786 44.1024 34.2869 43.1791C38.1796 39.3761 41.9944 35.6513 45.9494 31.7857C46.7591 32.3647 47.4909 32.8812 48.4407 33.5698C50.1068 30.9875 54.0929 30.252 53.5479 26.042C53.4389 25.2439 54.1085 24.3675 54.4355 23.538C54.4822 23.4285 54.5912 23.3658 54.6846 23.2876C57.2538 21.1122 59.8853 17.0431 62.3921 17.1684C67.4682 17.4344 71.7813 21.0809 75.2848 25.1187C75.5962 25.4786 75.8453 25.9012 76.1256 26.3081C81.9958 35.0566 81.6376 37.232 73.3228 43.3043C72.8713 43.6329 72.2017 44.1181 71.7813 43.9929C66.9077 42.4592 65.7087 46.9664 62.7347 48.9071C71.2831 58.9232 89.2362 74.5109 97.6133 84.3236C97.224 84.6053 92.3503 85.3095 90.4974 86.6398" fill="white"/>
</svg>
