<svg width="147" height="147" viewBox="0 0 147 147" fill="none" xmlns="http://www.w3.org/2000/svg">
<path d="M147 73.5C147 114.093 114.093 147 73.5 147C32.9071 147 0 114.093 0 73.5C0 32.9071 32.9071 0 73.5 0C114.093 0 147 32.9071 147 73.5Z" fill="url(#paint0_linear)"/>
<path d="M74.2608 105.666H38.4769V66.2617" stroke="white" stroke-width="5" stroke-miterlimit="10" stroke-linecap="round" stroke-linejoin="round"/>
<path d="M101.641 66.2617V77.6749" stroke="white" stroke-width="5" stroke-miterlimit="10" stroke-linecap="round" stroke-linejoin="round"/>
<path d="M70.0591 22.9988L118.229 71.1786L106.681 71.3022L70.0591 34.6729L33.6298 71.11L21.8895 71.1786L70.0591 22.9988Z" stroke="white" stroke-width="5" stroke-miterlimit="10" stroke-linejoin="round"/>
<path d="M32.5314 105.665H71.5284" stroke="white" stroke-width="5" stroke-miterlimit="10" stroke-linecap="round" stroke-linejoin="round"/>
<path d="M111.624 85.2151H81.2501V115.595H111.624V85.2151Z" stroke="white" stroke-width="5" stroke-miterlimit="10" stroke-linecap="round" stroke-linejoin="round"/>
<path d="M86.7563 94.2111L99.1008 107.973L128.925 74.7632" stroke="white" stroke-width="5" stroke-miterlimit="10" stroke-linecap="round" stroke-linejoin="round"/>
<defs>
<linearGradient id="paint2_linear" x1="73.5" y1="0" x2="73.5" y2="147" gradientUnits="userSpaceOnUse">
<stop stop-color="#F09028"/>
<stop offset="1" stop-color="#C46627"/>
</linearGradient>
</defs>
</svg>
